<?xml version="1.0" encoding="UTF-8"?>
<svg id="Layer_1" data-name="Layer 1" xmlns="http://www.w3.org/2000/svg" viewBox="0 0 411.51 269.97">
  <defs>
    <style>
      .cls-1 {
        fill: #0077fe;
      }

      .cls-2 {
        fill: #2f90fe;
      }

      .cls-3 {
        fill: #2288fe;
      }

      .cls-4 {
        fill: #3292fe;
      }

      .cls-5 {
        fill: #71b2fe;
      }

      .cls-6 {
        fill: #2188fe;
      }

      .cls-7 {
        fill: #4c9ffe;
      }

      .cls-8 {
        fill: #298bfe;
      }

      .cls-9 {
        fill: #2087fe;
      }

      .cls-10 {
        fill: #57a5fe;
      }

      .cls-11 {
        fill: #54a2fe;
      }

      .cls-12 {
        fill: #4399fe;
      }

      .cls-13 {
        fill: #5da7fe;
      }

      .cls-14 {
        fill: #3592fe;
      }

      .cls-15 {
        fill: #60a9fe;
      }

      .cls-16 {
        fill: #3993fe;
      }
    </style>
  </defs>
  <g>
    <path class="cls-1" d="M39.19,45.37c4.01-3.07,7.56-1.05,5.56,4s-9.25,12.65-13.6,16.14c-2.78,2.23-3.5.62-5.39-1.8-3.95-5.07-7.55-12.2-7.92-18.7-.23-3.99,1.1-7.04,5.03-3.71-.37-1.6-.99-3.15-1.37-4.75-.84-3.58-1.65-7.44-.04-10.93.92-1.99,2.29-3.19,4.18-1.36l2.03,3.13c-.73-6.2.1-14.39,4.31-19.31,3.25-3.8,7.71-4.55,9.24,1.08s.11,12.68-1.08,18.47c1.24-1.23,4.08-4.8,5.86-4.79s1.44,4.32,1.31,5.6c-.67,6.63-5.6,11.15-8.13,16.93l-.24.24c-.05-.05-.25.04-.24.12.02.26.35,0,.24-.12l.24-.24ZM28.4,64.8c-.07-5.73.44-11.54,2.18-17l1.17.33c-1.98,5.44-2.42,11.39-2.03,17.15,4.92-4.68,9.92-8.71,13.27-14.79.91-1.66,2.67-5.51-.56-5.37-2.11.09-3.75,2.7-4.59,2.86-.27.05-.97-.33-1.03-.59-.06-.28,2.24-4.47,2.58-5.05,1.62-2.81,3.8-5.32,5.12-8.31s2.25-6.66,1.63-9.99c-.54-.45-3.47,2.34-3.96,2.87-.53.59-2.31,3.37-2.51,3.5-.35.22-.97-.17-1.16-.52,1.26-5.81,2.98-12.46,2.09-18.41-.68-4.59-3.06-7.44-7.18-3.39s-5.07,11.9-4.8,17.52c.05,1.06.85,4.74.38,5.4-.18.25-.88.34-1.07.2-.32-.22-1.8-5.72-3.62-6.57-.97-.45-1.43.53-1.79,1.32-2.82,6.11,2.02,14.99,3.23,21.09-.26-.04-.65.19-.84.16-1.06-.18-2.11-6.67-5.02-6.15-1.19.21-.93,3.65-.86,4.69.4,5.6,3.61,11.89,6.91,16.35.72.98,1.42,2.02,2.45,2.7-.05.05.04.25.12.24.26-.02,0-.35-.12-.24ZM27.8,27.63v.24c.16-.08.16-.16,0-.24ZM40.03,27.87v.24c.16-.08.16-.16,0-.24ZM23,41.54v.24c.16-.08.16-.16,0-.24Z"/>
    <path class="cls-1" d="M144.73,77.03c.44-5.66,5.65-9.17,9.96-4.08,3.28,3.88,4.77,10.38,4.92,15.35l1.55-2.16c2.57-1.87,4.68.14,5.47,2.69,2.36,7.65-2.85,19.22-9.07,23.92-2.29,1.73-7.94,2.01-10.67,1.33-5.08-1.27-6.03-5.28-2.16-8.75-4.41-.3-13.68-2.48-12.66-8.46.5-2.92,3.63-4.14,6.18-4.61-4.86-2.98-10.9-7.4-11.28-13.66-.59-9.67,11.34-12.2,16.04-4.76.63,1,.92,2.33,1.72,3.19ZM145.45,78.11c-.11,1.1.08,2.35,0,3.48h-1.2c.13-2.09-.78-4.65-1.79-6.48-4.09-7.38-15.18-5.54-14.29,3.97.35,3.71,3.54,7.29,6.41,9.42.96.71,6.42,3.65,6.53,4.02.36,1.19-1.3.57-1.95.63-2.53.23-6.51,1.91-6.14,5.04.53,4.56,10.11,6.11,13.75,6.3.82.45.79.65.05,1.13-1.81,1.17-4.27,2.3-3.1,5.17,1.34,3.3,9.29,2.66,12.05,1.74-.77-3.11-1.54-6.22-2.64-9.23-.95-2.61-2.57-5.34-3.42-7.86-.31-.92.62-1.27.89-.88,2.56,5.59,4.78,11.27,6.24,17.26,5.58-4.03,9.61-12.97,9.25-19.79-.1-1.96-.89-6.18-3.68-5.34-2.22.67-2.97,7.36-3.32,7.59-.19.13-.65,0-.92.03.02-2.75.44-5.52.25-8.28-.26-3.81-3.11-13.24-7.25-14.33-3.57-.95-5.42,3.6-5.71,6.43ZM144.61,77.51v.24c.16-.08.16-.16,0-.24ZM159.6,89.26v-.48h-.24v.48h.24Z"/>
    <path class="cls-1" d="M20.48,93.09c-.05-.05-.25.04-.24.12.02.26.35,0,.24-.12,1.06-.34,1.93-1.19,3.06-1.38,10.26-1.74,12.06,16.19,4.7,20.04-1.35.71-3.26.68-4.16,1.12-.36.18-1.9,2.39-2.8,2.96-3.85,2.45-9.43-.3-12.08-3.43-5.02-5.94-4.06-15.09,4.8-15.47-.05.05.04.25.12.24.26-.02,0-.35-.12-.24.3-.26-3.16-5.06-3.11-5.84.56-.42,3.28-2.17,3.8-1.81l1.58,4.53c.91-1.44.96-3.94,2.54-4.9,2.29-1.38,2.12,2.86,1.66,4.18ZM19.64,89.5v.24c.16-.08.16-.16,0-.24ZM17.37,95.73c1.38-1.12,2.4-3.15,2.41-4.93,0-.37-.05-.61-.37-.82-.36-.16-.9,1.09-1.02,1.37-.56,1.31-.94,2.96-1.01,4.38ZM14,90.7c-.46.06-1.69.51-1.65,1.03.03.31,2.83,5,3.11,5.29.37.37.66.36,1.06.62l-2.52-6.95ZM28.79,110.04c4-3.57,3.67-12.49-.27-15.99-4.27-3.78-9.4.82-11.31,4.82-3.37-1.03-6.22-1.41-8.61,1.65-4.93,6.31,4.23,17.62,11.53,14.64,1.92-.78,2.66-3.07,3.47-3.49.15-.08,1.96-.09,2.59-.28.68-.2,2.09-.9,2.6-1.36Z"/>
    <path class="cls-1" d="M61.02,86.62c-4.6,2.5-5.19-5.21-5.04-8.03.14-2.67,1.42-11.38,4.69-11.86,4.27-.63,3.66,7.19,2.54,9.75-1.69,3.86-4.64,3.21-4.57-.98.01-.92.31-3.53,1.65-3.02-.09,1.92-1.11,3.84.36,5.51,2.43-1.44,2.91-6.92,1.75-9.17-1.84-3.56-4.11,2.78-4.47,4.29-.6,2.53-1.69,10.69.56,12.32,2.1,1.52,3.26-1.37,3.79-2.94.26-.79.87-4.32,1-4.51.22-.32.75-.22,1.09-.23-.36,2.54-1.02,6.99-3.12,8.63l-.24.24Z"/>
    <path class="cls-7" d="M23,41.54c.16.08.16.16,0,.24v-.24Z"/>
    <path class="cls-14" d="M40.03,27.87c.16.08.16.16,0,.24v-.24Z"/>
    <path class="cls-11" d="M38.95,45.61c.11.11-.22.38-.24.12,0-.08.19-.17.24-.12Z"/>
    <rect class="cls-2" x="159.37" y="88.78" width=".24" height=".48"/>
    <path class="cls-8" d="M144.61,77.51c.16.08.16.16,0,.24v-.24Z"/>
    <path class="cls-5" d="M14.01,96.93c.11-.11.38.22.12.24-.08,0-.17-.19-.12-.24Z"/>
    <path class="cls-10" d="M20.48,93.09c.11.11-.22.38-.24.12,0-.08.19-.17.24-.12Z"/>
    <path class="cls-4" d="M19.64,89.5c.16.08.16.16,0,.24v-.24Z"/>
  </g>
  <g>
    <path class="cls-1" d="M220.28,45.37c4.01-3.07,7.56-1.05,5.56,4s-9.25,12.65-13.6,16.14c-2.78,2.23-3.5.62-5.39-1.8-3.95-5.07-7.55-12.2-7.92-18.7-.23-3.99,1.1-7.04,5.03-3.71-.37-1.6-.99-3.15-1.37-4.75-.84-3.58-1.65-7.44-.04-10.93.92-1.99,2.29-3.19,4.18-1.36l2.03,3.13c-.73-6.2.1-14.39,4.31-19.31,3.25-3.8,7.71-4.55,9.24,1.08s.11,12.68-1.08,18.47c1.24-1.23,4.08-4.8,5.86-4.79s1.44,4.32,1.31,5.6c-.67,6.63-5.6,11.15-8.13,16.93l-.24.24c-.05-.05-.25.04-.24.12.02.26.35,0,.24-.12l.24-.24ZM209.49,64.8c-.07-5.73.44-11.54,2.18-17l1.17.33c-1.98,5.44-2.42,11.39-2.03,17.15,4.92-4.68,9.92-8.71,13.27-14.79.91-1.66,2.67-5.51-.56-5.37-2.11.09-3.75,2.7-4.59,2.86-.27.05-.97-.33-1.03-.59-.06-.28,2.24-4.47,2.58-5.05,1.62-2.81,3.8-5.32,5.12-8.31s2.25-6.66,1.63-9.99c-.54-.45-3.47,2.34-3.96,2.87-.53.59-2.31,3.37-2.51,3.5-.35.22-.97-.17-1.16-.52,1.26-5.81,2.98-12.46,2.09-18.41-.68-4.59-3.06-7.44-7.18-3.39s-5.07,11.9-4.8,17.52c.05,1.06.85,4.74.38,5.4-.18.25-.88.34-1.07.2-.32-.22-1.8-5.72-3.62-6.57-.97-.45-1.43.53-1.79,1.32-2.82,6.11,2.02,14.99,3.23,21.09-.26-.04-.65.19-.84.16-1.06-.18-2.11-6.67-5.02-6.15-1.19.21-.93,3.65-.86,4.69.4,5.6,3.61,11.89,6.91,16.35.72.98,1.42,2.02,2.45,2.7-.05.05.04.25.12.24.26-.02,0-.35-.12-.24ZM208.89,27.63v.24c.16-.08.16-.16,0-.24ZM221.12,27.87v.24c.16-.08.16-.16,0-.24ZM204.09,41.54v.24c.16-.08.16-.16,0-.24Z"/>
    <path class="cls-1" d="M325.82,77.03c.44-5.66,5.65-9.17,9.96-4.08,3.28,3.88,4.77,10.38,4.92,15.35l1.55-2.16c2.57-1.87,4.68.14,5.47,2.69,2.36,7.65-2.85,19.22-9.07,23.92-2.29,1.73-7.94,2.01-10.67,1.33-5.08-1.27-6.03-5.28-2.16-8.75-4.41-.3-13.68-2.48-12.66-8.46.5-2.92,3.63-4.14,6.18-4.61-4.86-2.98-10.9-7.4-11.28-13.66-.59-9.67,11.34-12.2,16.04-4.76.63,1,.92,2.33,1.72,3.19ZM326.54,78.11c-.11,1.1.08,2.35,0,3.48h-1.2c.13-2.09-.78-4.65-1.79-6.48-4.09-7.38-15.18-5.54-14.29,3.97.35,3.71,3.54,7.29,6.41,9.42.96.71,6.42,3.65,6.53,4.02.36,1.19-1.3.57-1.95.63-2.53.23-6.51,1.91-6.14,5.04.53,4.56,10.11,6.11,13.75,6.3.82.45.79.65.05,1.13-1.81,1.17-4.27,2.3-3.1,5.17,1.34,3.3,9.29,2.66,12.05,1.74-.77-3.11-1.54-6.22-2.64-9.23-.95-2.61-2.57-5.34-3.42-7.86-.31-.92.62-1.27.89-.88,2.56,5.59,4.78,11.27,6.24,17.26,5.58-4.03,9.61-12.97,9.25-19.79-.1-1.96-.89-6.18-3.68-5.34-2.22.67-2.97,7.36-3.32,7.59-.19.13-.65,0-.92.03.02-2.75.44-5.52.25-8.28-.26-3.81-3.11-13.24-7.25-14.33-3.57-.95-5.42,3.6-5.71,6.43ZM325.7,77.51v.24c.16-.08.16-.16,0-.24ZM340.69,89.26v-.48h-.24v.48h.24Z"/>
    <path class="cls-1" d="M271.85,102.45c-1.79-.38-3.42-.92-4.01-2.83-.68-2.2-1.09-5.75-1.47-8.12-1.3-8.11-2.3-16.52-2.16-24.74.88-.31,1.58-.91,2.44-1.28,3.47-1.48,8.49-2.18,12.27-2.37,1.3-.06,9.83-.12,10.3.22,1.18,7.76,1.98,15.59,3.05,23.37.26,1.9.46,3.99,1.12,5.75-.08.69-.76.74-1.15,1.23-1.3,1.63-2.19,3.07-.61,4.93,1.44,1.69,5.24,2.23-.23,2.87-3.36.39-7.18.72-10.56.96-.99.07-2.01-.04-3,0l.72,8.63c-.38-.06-1.12.14-1.4-.04-.16-.1-1.32-2.96-1.66-3.49-.11-.17-.19-.7-.54-.31-.44.5-.09,4.55-2.16,4.08l-.96-8.87c.05.05.25-.04.24-.12-.02-.26-.35,0-.24.12ZM288.41,64.32c-6.52-.26-13.96-.42-20.2,1.75-.61.21-2.47.86-2.71,1.37-.27.56-.18,5.59-.13,6.61.3,6.39,1.49,15.81,2.9,22.04.06.27.09.44.35.6,1.69-2.31,4.8-3.05,7.51-3.52,5.17-.9,10.66-.76,15.88-1.27l-3.6-27.58ZM291.28,93.09c-5.72.53-12.23.17-17.75,1.8-3.84,1.14-7.41,4.91-1.68,6.35l.04-3.08c1.12-.4,2.19-1.03,3.43-1,2.92.08,2.57,2.01,2.53,4.33l13.91-1.2-1.53-1.7c-1.25-2.35-.24-3.54,1.06-5.49.05.05.25-.04.24-.12-.02-.26-.35,0-.24.12ZM268.38,96.93v.24c.16-.08.16-.16,0-.24ZM277.13,108.2l-.58-9.12c-.37-1.35-3.52-.71-3.73.37l.72,8.99.94-3.01c.13-.58.67-.86,1.09-.33l1.56,3.11ZM277.25,108.44v.24c.16-.08.16-.16,0-.24Z"/>
    <path class="cls-1" d="M244.29,135.76c1.44.31,2.97.69,2.61,2.53-.07.36-.48.66-.44.93.07.44.77.73.71,1.97-.03.62-.43,1.08-.43,1.2,0,.69,2.33,2.26-.8,3.35-1.28.45-4.59.57-6.1.61-1.36.04-7.35.23-7.89-1.02-.57-1.33.33-2.09.28-2.42-.04-.26-.59-.64-.68-1.26-.05-.34,0-3.04.05-3.51.19-2.08,2.18-1.63,2.29-2.22.18-.93-4.49-6.17-5.26-7.89-3.79-8.44,1.66-19.36,11.8-16.83,7.53,1.88,11.25,10.81,7.87,17.7-1.17,2.39-3.88,4.08-4.02,6.86ZM236.04,123.87c1.16.98,1.26,3.25,1.87,4,.38.48,1.85.1,2.01-.4.23-.72.19-2.31.38-3.22.3-1.42,1.84-5.11,3.35-2.61.97,1.61-.24,3.86-1.2,5.23-.3.42-1.02.89-1.17,1.22-.36.8-.05,7.14.58,7.56,1.23.83,1.7-1.95,2.22-2.84.79-1.35,2.06-2.41,2.87-3.84,4.5-7.95-1.62-18.15-10.93-16.93-7.01.92-8.94,10.27-6.25,15.8,1.4,2.88,4.47,4.79,5.18,7.89l3.1-.22-.73-6.22c-1.06.08-1.74-.04-2.61-.63-3.19-2.12-1.29-7.05,1.35-4.82ZM241.15,126.43l-.24.48h.24s0-.48,0-.48c1.12-.08,2.36-4.33,1.32-4.31-.65,0-1.43,3.62-1.32,4.31ZM236.83,128.34c.19-.2-1.16-4.13-2.27-3.83-1.15,1.69.43,3.74,2.27,3.83ZM239.95,128.82c-.49.28-1.12.45-1.68.48.59,1.99.72,4.15.72,6.23h1.44c-.05.05.04.24.12.24.26-.02,0-.35-.12-.24l-.48-6.47.24-.36-.12-.12c-.17.09-.11.23-.12.24ZM245.65,137.27c-1.15-.88-11.21-.72-12.52.2-.57.4-.36,1.03-.38,1.66,3.16-.17,6.3-.23,9.49-.25,1,0,2.22.44,3.22-.36.35-.28.57-.97.19-1.26ZM245.68,139.88c-.23-.17-1.31.2-1.76.22-2.08.08-9.65-.4-10.92.35-.67.39-.28,1.37.16,1.8,2.54-.11,5.11.11,7.64,0,.51-.02.96-.21,1.43-.25.89-.06,3.71.32,3.92-.87.02-.13-.42-1.22-.48-1.26ZM246.42,144.41c.24-.34-.38-1.16-.72-1.31-.72-.32-1.15.1-1.79.12-1.86.04-3.68.18-5.5.25-1.06.04-4.74-.26-5.29.23-.13.12-.39.66-.35.83.11.25.35.3.57.4,1.24.55,10.01.25,11.72-.08.2-.04,1.33-.37,1.37-.43Z"/>
    <path class="cls-1" d="M201.57,93.09c-.05-.05-.25.04-.24.12.02.26.35,0,.24-.12,1.06-.34,1.93-1.19,3.06-1.38,10.26-1.74,12.06,16.19,4.7,20.04-1.35.71-3.26.68-4.16,1.12-.36.18-1.9,2.39-2.8,2.96-3.85,2.45-9.43-.3-12.08-3.43-5.02-5.94-4.06-15.09,4.8-15.47-.05.05.04.25.12.24.26-.02,0-.35-.12-.24.3-.26-3.16-5.06-3.11-5.84.56-.42,3.28-2.17,3.8-1.81l1.58,4.53c.91-1.44.96-3.94,2.54-4.9,2.29-1.38,2.12,2.86,1.66,4.18ZM200.73,89.5v.24c.16-.08.16-.16,0-.24ZM198.46,95.73c1.38-1.12,2.4-3.15,2.41-4.93,0-.37-.05-.61-.37-.82-.36-.16-.9,1.09-1.02,1.37-.56,1.31-.94,2.96-1.01,4.38ZM195.09,90.7c-.46.06-1.69.51-1.65,1.03.03.31,2.83,5,3.11,5.29.37.37.66.36,1.06.62l-2.52-6.95ZM209.89,110.04c4-3.57,3.67-12.49-.27-15.99-4.27-3.78-9.4.82-11.31,4.82-3.37-1.03-6.22-1.41-8.61,1.65-4.93,6.31,4.23,17.62,11.53,14.64,1.92-.78,2.66-3.07,3.47-3.49.15-.08,1.96-.09,2.59-.28.68-.2,2.09-.9,2.6-1.36Z"/>
    <path class="cls-1" d="M242.11,86.62c-4.6,2.5-5.19-5.21-5.04-8.03.14-2.67,1.42-11.38,4.69-11.86,4.27-.63,3.66,7.19,2.54,9.75-1.69,3.86-4.64,3.21-4.57-.98.01-.92.31-3.53,1.65-3.02-.09,1.92-1.11,3.84.36,5.51,2.43-1.44,2.91-6.92,1.75-9.17-1.84-3.56-4.11,2.78-4.47,4.29-.6,2.53-1.69,10.69.56,12.32,2.1,1.52,3.26-1.37,3.79-2.94.26-.79.87-4.32,1-4.51.22-.32.75-.22,1.09-.23-.36,2.54-1.02,6.99-3.12,8.63l-.24.24Z"/>
    <path class="cls-7" d="M204.09,41.54c.16.08.16.16,0,.24v-.24Z"/>
    <path class="cls-14" d="M221.12,27.87c.16.08.16.16,0,.24v-.24Z"/>
    <path class="cls-11" d="M220.04,45.61c.11.11-.22.38-.24.12,0-.08.19-.17.24-.12Z"/>
    <rect class="cls-2" x="340.46" y="88.78" width=".24" height=".48"/>
    <path class="cls-8" d="M325.7,77.51c.16.08.16.16,0,.24v-.24Z"/>
    <path class="cls-12" d="M268.38,96.93c.16.08.16.16,0,.24v-.24Z"/>
    <path class="cls-3" d="M271.85,102.45c-.11-.11.22-.38.24-.12,0,.08-.19.17-.24.12Z"/>
    <path class="cls-9" d="M277.25,108.44c.16.08.16.16,0,.24v-.24Z"/>
    <path class="cls-6" d="M291.28,93.09c-.11-.11.22-.38.24-.12,0,.08-.19.17-.24.12Z"/>
    <path class="cls-15" d="M239.95,129.06v-.24s-.05-.15.12-.24l.12.12-.24.36Z"/>
    <polygon class="cls-9" points="241.15 126.43 241.15 126.9 240.91 126.9 241.15 126.43"/>
    <path class="cls-16" d="M240.43,135.54c.11-.11.38.22.12.24-.08,0-.17-.19-.12-.24Z"/>
    <path class="cls-5" d="M195.1,96.93c.11-.11.38.22.12.24-.08,0-.17-.19-.12-.24Z"/>
    <path class="cls-10" d="M201.57,93.09c.11.11-.22.38-.24.12,0-.08.19-.17.24-.12Z"/>
    <path class="cls-4" d="M200.73,89.5c.16.08.16.16,0,.24v-.24Z"/>
    <path class="cls-1" d="M270.39,67.95c.46.37.21,4.91.26,5.86.17,3.31.37,6.76.73,10.06.26,2.42.75,4.83,1.19,7.22.11.61-1.15.79-1.19.43-1.23-7.8-1.85-15.69-1.92-23.6.26.05.78-.09.93.03Z"/>
    <path class="cls-1" d="M287.69,94.53v.96c-4.04.35-8.17.19-12.12,1.2l-.35-1.08c4.07-.9,8.3-1.09,12.47-1.07Z"/>
    <polygon class="cls-1" points="288.17 96.69 288.16 97.65 279.77 98.13 279.77 97.17 288.17 96.69"/>
    <path class="cls-1" d="M286.46,99.11l.26.58c-.03.84-7.23.89-8.15.84v-.96s7.89-.46,7.89-.46Z"/>
  </g>
  <g>
    <path class="cls-1" d="M299.58,161.29c4.01-3.07,7.56-1.05,5.56,4s-9.25,12.65-13.6,16.14c-2.78,2.23-3.5.62-5.39-1.8-3.95-5.07-7.55-12.2-7.92-18.7-.23-3.99,1.1-7.04,5.03-3.71-.37-1.6-.99-3.15-1.37-4.75-.84-3.58-1.65-7.44-.04-10.93.92-1.99,2.29-3.19,4.18-1.36l2.03,3.13c-.73-6.2.1-14.39,4.31-19.31,3.25-3.8,7.71-4.55,9.24,1.08s.11,12.68-1.08,18.47c1.24-1.23,4.08-4.8,5.86-4.79s1.44,4.32,1.31,5.6c-.67,6.63-5.6,11.15-8.13,16.93l-.24.24c-.05-.05-.25.04-.24.12.02.26.35,0,.24-.12l.24-.24ZM288.79,180.71c-.07-5.73.44-11.54,2.18-17l1.17.33c-1.98,5.44-2.42,11.39-2.03,17.15,4.92-4.68,9.92-8.71,13.27-14.79.91-1.66,2.67-5.51-.56-5.37-2.11.09-3.75,2.7-4.59,2.86-.27.05-.97-.33-1.03-.59-.06-.28,2.24-4.47,2.58-5.05,1.62-2.81,3.8-5.32,5.12-8.31s2.25-6.66,1.63-9.99c-.54-.45-3.47,2.34-3.96,2.87-.53.59-2.31,3.37-2.51,3.5-.35.22-.97-.17-1.16-.52,1.26-5.81,2.98-12.46,2.09-18.41-.68-4.59-3.06-7.44-7.18-3.39s-5.07,11.9-4.8,17.52c.05,1.06.85,4.74.38,5.4-.18.25-.88.34-1.07.2-.32-.22-1.8-5.72-3.62-6.57-.97-.45-1.43.53-1.79,1.32-2.82,6.11,2.02,14.99,3.23,21.09-.26-.04-.65.19-.84.16-1.06-.18-2.11-6.67-5.02-6.15-1.19.21-.93,3.65-.86,4.69.4,5.6,3.61,11.89,6.91,16.35.72.98,1.42,2.02,2.45,2.7-.05.05.04.25.12.24.26-.02,0-.35-.12-.24ZM288.19,143.54v.24c.16-.08.16-.16,0-.24ZM300.42,143.78v.24c.16-.08.16-.16,0-.24ZM283.39,157.45v.24c.16-.08.16-.16,0-.24Z"/>
    <path class="cls-1" d="M323.59,251.67c1.44.31,2.97.69,2.61,2.53-.07.36-.48.66-.44.93.07.44.77.73.71,1.97-.03.62-.43,1.08-.43,1.2,0,.69,2.33,2.26-.8,3.35-1.28.45-4.59.57-6.1.61-1.36.04-7.35.23-7.89-1.02-.57-1.33.33-2.09.28-2.42-.04-.26-.59-.64-.68-1.26-.05-.34,0-3.04.05-3.51.19-2.08,2.18-1.63,2.29-2.22.18-.93-4.49-6.17-5.26-7.89-3.79-8.44,1.66-19.36,11.8-16.83,7.53,1.88,11.25,10.81,7.87,17.7-1.17,2.39-3.88,4.08-4.02,6.86ZM315.34,239.78c1.16.98,1.26,3.25,1.87,4,.38.48,1.85.1,2.01-.4.23-.72.19-2.31.38-3.22.3-1.42,1.84-5.11,3.35-2.61.97,1.61-.24,3.86-1.2,5.23-.3.42-1.02.89-1.17,1.22-.36.8-.05,7.14.58,7.56,1.23.83,1.7-1.95,2.22-2.84.79-1.35,2.06-2.41,2.87-3.84,4.5-7.95-1.62-18.15-10.93-16.93-7.01.92-8.94,10.27-6.25,15.8,1.4,2.88,4.47,4.79,5.18,7.89l3.1-.22-.73-6.22c-1.06.08-1.74-.04-2.61-.63-3.19-2.12-1.29-7.05,1.35-4.82ZM320.45,242.34l-.24.48h.24s0-.48,0-.48c1.12-.08,2.36-4.33,1.32-4.31-.65,0-1.43,3.62-1.32,4.31ZM316.13,244.26c.19-.2-1.16-4.13-2.27-3.83-1.15,1.69.43,3.74,2.27,3.83ZM319.25,244.74c-.49.28-1.12.45-1.68.48.59,1.99.72,4.15.72,6.23h1.44c-.05.05.04.24.12.24.26-.02,0-.35-.12-.24l-.48-6.47.24-.36-.12-.12c-.17.09-.11.23-.12.24ZM324.95,253.18c-1.15-.88-11.21-.72-12.52.2-.57.4-.36,1.03-.38,1.66,3.16-.17,6.3-.23,9.49-.25,1,0,2.22.44,3.22-.36.35-.28.57-.97.19-1.26ZM324.98,255.8c-.23-.17-1.31.2-1.76.22-2.08.08-9.65-.4-10.92.35-.67.39-.28,1.37.16,1.8,2.54-.11,5.11.11,7.64,0,.51-.02.96-.21,1.43-.25.89-.06,3.71.32,3.92-.87.02-.13-.42-1.22-.48-1.26ZM325.73,260.32c.24-.34-.38-1.16-.72-1.31-.72-.32-1.15.1-1.79.12-1.86.04-3.68.18-5.5.25-1.06.04-4.74-.26-5.29.23-.13.12-.39.66-.35.83.11.25.35.3.57.4,1.24.55,10.01.25,11.72-.08.2-.04,1.33-.37,1.37-.43Z"/>
    <path class="cls-1" d="M403.18,138.06l2.66,9.21-3.11,29c-.04.7-1.65.79-2.28.84-1.28.1-6.39-.32-7.05-1.34-.18-.28-.25-.61-.28-.94,1.14-9.99,1.92-20.08,3.6-29.98l5.4-6.61,1.06-.18ZM402.97,141.62c.06-.08-.35-1.88-.72-1.92-.97,1.49-1.45,1.65-.96,3.59.5-.12.45-1.06.78-1.38.25-.24.87-.26.9-.3-.05.05.04.25.12.24.26-.02,0-.35-.12-.24ZM400.33,143.3c-.39-.43-3.23,2.32-2.88,3.11,2.36.53,4.75.99,7.2.96-.37-.8-.41-1.82-.88-2.57-.32-.5-1.09-.65-1.04-1.5l-1.55,2.63c-1.25-.44-.78-1.55-.84-2.63ZM404.65,148.34h-3.72c-.89,0-2.75-.75-3.72-.96.03.29-.17.54.16.72.83.47,5.39.84,6.45.72.36-.04.74-.05.83-.49ZM404.41,149.78c-2.51.13-4.96-.1-7.44-.48l-2.13,20.84c2.46.87,4.84.92,7.41.5l2.16-20.86ZM402.01,171.84c-2.54.37-5.03.3-7.43-.72.03.27-.14.55.14.74.87.61,5.75.88,6.83.58.43-.12.56-.07.47-.6ZM401.77,173.52c-2.54.53-4.93-.13-7.43-.48l-.24,2.16c2.43.65,4.75.85,7.28.73.49-.11.41-1.96.4-2.41.05.05.25-.04.24-.12-.02-.26-.35,0-.24.12Z"/>
    <path class="cls-1" d="M280.87,209.01c-.05-.05-.25.04-.24.12.02.26.35,0,.24-.12,1.06-.34,1.93-1.19,3.06-1.38,10.26-1.74,12.06,16.19,4.7,20.04-1.35.71-3.26.68-4.16,1.12-.36.18-1.9,2.39-2.8,2.96-3.85,2.45-9.43-.3-12.08-3.43-5.02-5.94-4.06-15.09,4.8-15.47-.05.05.04.25.12.24.26-.02,0-.35-.12-.24.3-.26-3.16-5.06-3.11-5.84.56-.42,3.28-2.17,3.8-1.81l1.58,4.53c.91-1.44.96-3.94,2.54-4.9,2.29-1.38,2.12,2.86,1.66,4.18ZM280.03,205.41v.24c.16-.08.16-.16,0-.24ZM277.76,211.64c1.38-1.12,2.4-3.15,2.41-4.93,0-.37-.05-.61-.37-.82-.36-.16-.9,1.09-1.02,1.37-.56,1.31-.94,2.96-1.01,4.38ZM274.39,206.61c-.46.06-1.69.51-1.65,1.03.03.31,2.83,5,3.11,5.29.37.37.66.36,1.06.62l-2.52-6.95ZM289.19,225.95c4-3.57,3.67-12.49-.27-15.99-4.27-3.78-9.4.82-11.31,4.82-3.37-1.03-6.22-1.41-8.61,1.65-4.93,6.31,4.23,17.62,11.53,14.64,1.92-.78,2.66-3.07,3.47-3.49.15-.08,1.96-.09,2.59-.28.68-.2,2.09-.9,2.6-1.36Z"/>
    <path class="cls-1" d="M321.41,202.53c-4.6,2.5-5.19-5.21-5.04-8.03.14-2.67,1.42-11.38,4.69-11.86,4.27-.63,3.66,7.19,2.54,9.75-1.69,3.86-4.64,3.21-4.57-.98.01-.92.31-3.53,1.65-3.02-.09,1.92-1.11,3.84.36,5.51,2.43-1.44,2.91-6.92,1.75-9.17-1.84-3.56-4.11,2.78-4.47,4.29-.6,2.53-1.69,10.69.56,12.32,2.1,1.52,3.26-1.37,3.79-2.94.26-.79.87-4.32,1-4.51.22-.32.75-.22,1.09-.23-.36,2.54-1.02,6.99-3.12,8.63l-.24.24Z"/>
    <path class="cls-7" d="M283.39,157.45c.16.08.16.16,0,.24v-.24Z"/>
    <path class="cls-14" d="M300.42,143.78c.16.08.16.16,0,.24v-.24Z"/>
    <path class="cls-11" d="M299.34,161.53c.11.11-.22.38-.24.12,0-.08.19-.17.24-.12Z"/>
    <path class="cls-15" d="M319.25,244.98v-.24s-.05-.15.12-.24l.12.12-.24.36Z"/>
    <polygon class="cls-9" points="320.45 242.34 320.45 242.82 320.21 242.82 320.45 242.34"/>
    <path class="cls-16" d="M319.73,251.45c.11-.11.38.22.12.24-.08,0-.17-.19-.12-.24Z"/>
    <path class="cls-3" d="M401.77,173.52c-.11-.11.22-.38.24-.12,0,.08-.19.17-.24.12Z"/>
    <path class="cls-13" d="M402.97,141.62c.11-.11.38.22.12.24-.08,0-.17-.19-.12-.24Z"/>
    <path class="cls-5" d="M274.4,212.84c.11-.11.38.22.12.24-.08,0-.17-.19-.12-.24Z"/>
    <path class="cls-10" d="M280.87,209.01c.11.11-.22.38-.24.12,0-.08.19-.17.24-.12Z"/>
    <path class="cls-4" d="M280.03,205.41c.16.08.16.16,0,.24v-.24Z"/>
    <path class="cls-1" d="M400.27,151.49c.69-.14,2.01,1.01,2.17,1.57.32,1.11.35,3.78.29,4.99-.09,1.72-.48,3.96-.79,5.68-.25,1.37-1.55,8.77-4.01,5.83-1.78-2.12-.8-10.81-.16-13.6.29-1.28,1.01-4.19,2.5-4.48ZM400.47,152.67c-1.31.28-2.18,6.3-2.3,7.54-.29,2.87-.49,6.37.84,8.99,1.02-.03,2.43-8.93,2.52-10.19.06-.93.35-6.64-1.05-6.34Z"/>
  </g>
  <g>
    <path class="cls-1" d="M101.31,155.42c4.01-3.07,7.56-1.05,5.56,4s-9.25,12.65-13.6,16.14c-2.78,2.23-3.5.62-5.39-1.8-3.95-5.07-7.55-12.2-7.92-18.7-.23-3.99,1.1-7.04,5.03-3.71-.37-1.6-.99-3.15-1.37-4.75-.84-3.58-1.65-7.44-.04-10.93.92-1.99,2.29-3.19,4.18-1.36l2.03,3.13c-.73-6.2.1-14.39,4.31-19.31,3.25-3.8,7.71-4.55,9.24,1.08s.11,12.68-1.08,18.47c1.24-1.23,4.08-4.8,5.86-4.79s1.44,4.32,1.31,5.6c-.67,6.63-5.6,11.15-8.13,16.93l-.24.24c-.05-.05-.25.04-.24.12.02.26.35,0,.24-.12l.24-.24ZM90.51,174.84c-.07-5.73.44-11.54,2.18-17l1.17.33c-1.98,5.44-2.42,11.39-2.03,17.15,4.92-4.68,9.92-8.71,13.27-14.79.91-1.66,2.67-5.51-.56-5.37-2.11.09-3.75,2.7-4.59,2.86-.27.05-.97-.33-1.03-.59-.06-.28,2.24-4.47,2.58-5.05,1.62-2.81,3.8-5.32,5.12-8.31s2.25-6.66,1.63-9.99c-.54-.45-3.47,2.34-3.96,2.87-.53.59-2.31,3.37-2.51,3.5-.35.22-.97-.17-1.16-.52,1.26-5.81,2.98-12.46,2.09-18.41-.68-4.59-3.06-7.44-7.18-3.39s-5.07,11.9-4.8,17.52c.05,1.06.85,4.74.38,5.4-.18.25-.88.34-1.07.2-.32-.22-1.8-5.72-3.62-6.57-.97-.45-1.43.53-1.79,1.32-2.82,6.11,2.02,14.99,3.23,21.09-.26-.04-.65.19-.84.16-1.06-.18-2.11-6.67-5.02-6.15-1.19.21-.93,3.65-.86,4.69.4,5.6,3.61,11.89,6.91,16.35.72.98,1.42,2.02,2.45,2.7-.05.05.04.25.12.24.26-.02,0-.35-.12-.24ZM89.91,137.67v.24c.16-.08.16-.16,0-.24ZM102.15,137.91v.24c.16-.08.16-.16,0-.24ZM85.11,151.58v.24c.16-.08.16-.16,0-.24Z"/>
    <path class="cls-1" d="M206.84,187.07c.44-5.66,5.65-9.17,9.96-4.08,3.28,3.88,4.77,10.38,4.92,15.35l1.55-2.16c2.57-1.87,4.68.14,5.47,2.69,2.36,7.65-2.85,19.22-9.07,23.92-2.29,1.73-7.94,2.01-10.67,1.33-5.08-1.27-6.03-5.28-2.16-8.75-4.41-.3-13.68-2.48-12.66-8.46.5-2.92,3.63-4.14,6.18-4.61-4.86-2.98-10.9-7.4-11.28-13.66-.59-9.67,11.34-12.2,16.04-4.76.63,1,.92,2.33,1.72,3.19ZM207.57,188.15c-.11,1.1.08,2.35,0,3.48h-1.2c.13-2.09-.78-4.65-1.79-6.48-4.09-7.38-15.18-5.54-14.29,3.97.35,3.71,3.54,7.29,6.41,9.42.96.71,6.42,3.65,6.53,4.02.36,1.19-1.3.57-1.95.63-2.53.23-6.51,1.91-6.14,5.04.53,4.56,10.11,6.11,13.75,6.3.82.45.79.65.05,1.13-1.81,1.17-4.27,2.3-3.1,5.17,1.34,3.3,9.29,2.66,12.05,1.74-.77-3.11-1.54-6.22-2.64-9.23-.95-2.61-2.57-5.34-3.42-7.86-.31-.92.62-1.27.89-.88,2.56,5.59,4.78,11.27,6.24,17.26,5.58-4.03,9.61-12.97,9.25-19.79-.1-1.96-.89-6.18-3.68-5.34-2.22.67-2.97,7.36-3.32,7.59-.19.13-.65,0-.92.03.02-2.75.44-5.52.25-8.28-.26-3.81-3.11-13.24-7.25-14.33-3.57-.95-5.42,3.6-5.71,6.43ZM206.73,187.55v.24c.16-.08.16-.16,0-.24ZM221.72,199.3v-.48h-.24v.48h.24Z"/>
    <path class="cls-1" d="M152.88,212.49c-1.79-.38-3.42-.92-4.01-2.83-.68-2.2-1.09-5.75-1.47-8.12-1.3-8.11-2.3-16.52-2.16-24.74.88-.31,1.58-.91,2.44-1.28,3.47-1.48,8.49-2.18,12.27-2.37,1.3-.06,9.83-.12,10.3.22,1.18,7.76,1.98,15.59,3.05,23.37.26,1.9.46,3.99,1.12,5.75-.08.69-.76.74-1.15,1.23-1.3,1.63-2.19,3.07-.61,4.93,1.44,1.69,5.24,2.23-.23,2.87-3.36.39-7.18.72-10.56.96-.99.07-2.01-.04-3,0l.72,8.63c-.38-.06-1.12.14-1.4-.04-.16-.1-1.32-2.96-1.66-3.49-.11-.17-.19-.7-.54-.31-.44.5-.09,4.55-2.16,4.08l-.96-8.87c.05.05.25-.04.24-.12-.02-.26-.35,0-.24.12ZM169.43,174.36c-6.52-.26-13.96-.42-20.2,1.75-.61.21-2.47.86-2.71,1.37-.27.56-.18,5.59-.13,6.61.3,6.39,1.49,15.81,2.9,22.04.06.27.09.44.35.6,1.69-2.31,4.8-3.05,7.51-3.52,5.17-.9,10.66-.76,15.88-1.27l-3.6-27.58ZM172.31,203.14c-5.72.53-12.23.17-17.75,1.8-3.84,1.14-7.41,4.91-1.68,6.35l.04-3.08c1.12-.4,2.19-1.03,3.43-1,2.92.08,2.57,2.01,2.53,4.33l13.91-1.2-1.53-1.7c-1.25-2.35-.24-3.54,1.06-5.49.05.05.25-.04.24-.12-.02-.26-.35,0-.24.12ZM149.4,206.97v.24c.16-.08.16-.16,0-.24ZM158.15,218.24l-.58-9.12c-.37-1.35-3.52-.71-3.73.37l.72,8.99.94-3.01c.13-.58.67-.86,1.09-.33l1.56,3.11ZM158.27,218.48v.24c.16-.08.16-.16,0-.24Z"/>
    <path class="cls-1" d="M125.31,245.8c1.44.31,2.97.69,2.61,2.53-.07.36-.48.66-.44.93.07.44.77.73.71,1.97-.03.62-.43,1.08-.43,1.2,0,.69,2.33,2.26-.8,3.35-1.28.45-4.59.57-6.1.61-1.36.04-7.35.23-7.89-1.02-.57-1.33.33-2.09.28-2.42-.04-.26-.59-.64-.68-1.26-.05-.34,0-3.04.05-3.51.19-2.08,2.18-1.63,2.29-2.22.18-.93-4.49-6.17-5.26-7.89-3.79-8.44,1.66-19.36,11.8-16.83,7.53,1.88,11.25,10.81,7.87,17.7-1.17,2.39-3.88,4.08-4.02,6.86ZM117.06,233.91c1.16.98,1.26,3.25,1.87,4,.38.48,1.85.1,2.01-.4.23-.72.19-2.31.38-3.22.3-1.42,1.84-5.11,3.35-2.61.97,1.61-.24,3.86-1.2,5.23-.3.42-1.02.89-1.17,1.22-.36.8-.05,7.14.58,7.56,1.23.83,1.7-1.95,2.22-2.84.79-1.35,2.06-2.41,2.87-3.84,4.5-7.95-1.62-18.15-10.93-16.93-7.01.92-8.94,10.27-6.25,15.8,1.4,2.88,4.47,4.79,5.18,7.89l3.1-.22-.73-6.22c-1.06.08-1.74-.04-2.61-.63-3.19-2.12-1.29-7.05,1.35-4.82ZM122.17,236.47l-.24.48h.24s0-.48,0-.48c1.12-.08,2.36-4.33,1.32-4.31-.65,0-1.43,3.62-1.32,4.31ZM117.86,238.39c.19-.2-1.16-4.13-2.27-3.83-1.15,1.69.43,3.74,2.27,3.83ZM120.97,238.87c-.49.28-1.12.45-1.68.48.59,1.99.72,4.15.72,6.23h1.44c-.05.05.04.24.12.24.26-.02,0-.35-.12-.24l-.48-6.47.24-.36-.12-.12c-.17.09-.11.23-.12.24ZM126.68,247.31c-1.15-.88-11.21-.72-12.52.2-.57.4-.36,1.03-.38,1.66,3.16-.17,6.3-.23,9.49-.25,1,0,2.22.44,3.22-.36.35-.28.57-.97.19-1.26ZM126.7,249.93c-.23-.17-1.31.2-1.76.22-2.08.08-9.65-.4-10.92.35-.67.39-.28,1.37.16,1.8,2.54-.11,5.11.11,7.64,0,.51-.02.96-.21,1.43-.25.89-.06,3.71.32,3.92-.87.02-.13-.42-1.22-.48-1.26ZM127.45,254.45c.24-.34-.38-1.16-.72-1.31-.72-.32-1.15.1-1.79.12-1.86.04-3.68.18-5.5.25-1.06.04-4.74-.26-5.29.23-.13.12-.39.66-.35.83.11.25.35.3.57.4,1.24.55,10.01.25,11.72-.08.2-.04,1.33-.37,1.37-.43Z"/>
    <path class="cls-1" d="M204.9,132.19l2.66,9.21-3.11,29c-.04.7-1.65.79-2.28.84-1.28.1-6.39-.32-7.05-1.34-.18-.28-.25-.61-.28-.94,1.14-9.99,1.92-20.08,3.6-29.98l5.4-6.61,1.06-.18ZM204.69,135.75c.06-.08-.35-1.88-.72-1.92-.97,1.49-1.45,1.65-.96,3.59.5-.12.45-1.06.78-1.38.25-.24.87-.26.9-.3-.05.05.04.25.12.24.26-.02,0-.35-.12-.24ZM202.05,137.43c-.39-.43-3.23,2.32-2.88,3.11,2.36.53,4.75.99,7.2.96-.37-.8-.41-1.82-.88-2.57-.32-.5-1.09-.65-1.04-1.5l-1.55,2.63c-1.25-.44-.78-1.55-.84-2.63ZM206.37,142.47h-3.72c-.89,0-2.75-.75-3.72-.96.03.29-.17.54.16.72.83.47,5.39.84,6.45.72.36-.04.74-.05.83-.49ZM206.13,143.91c-2.51.13-4.96-.1-7.44-.48l-2.13,20.84c2.46.87,4.84.92,7.41.5l2.16-20.86ZM203.73,165.97c-2.54.37-5.03.3-7.43-.72.03.27-.14.55.14.74.87.61,5.75.88,6.83.58.43-.12.56-.07.47-.6ZM203.49,167.65c-2.54.53-4.93-.13-7.43-.48l-.24,2.16c2.43.65,4.75.85,7.28.73.49-.11.41-1.96.4-2.41.05.05.25-.04.24-.12-.02-.26-.35,0-.24.12Z"/>
    <path class="cls-1" d="M82.6,203.14c-.05-.05-.25.04-.24.12.02.26.35,0,.24-.12,1.06-.34,1.93-1.19,3.06-1.38,10.26-1.74,12.06,16.19,4.7,20.04-1.35.71-3.26.68-4.16,1.12-.36.18-1.9,2.39-2.8,2.96-3.85,2.45-9.43-.3-12.08-3.43-5.02-5.94-4.06-15.09,4.8-15.47-.05.05.04.25.12.24.26-.02,0-.35-.12-.24.3-.26-3.16-5.06-3.11-5.84.56-.42,3.28-2.17,3.8-1.81l1.58,4.53c.91-1.44.96-3.94,2.54-4.9,2.29-1.38,2.12,2.86,1.66,4.18ZM81.76,199.54v.24c.16-.08.16-.16,0-.24ZM79.48,205.77c1.38-1.12,2.4-3.15,2.41-4.93,0-.37-.05-.61-.37-.82-.36-.16-.9,1.09-1.02,1.37-.56,1.31-.94,2.96-1.01,4.38ZM76.12,200.74c-.46.06-1.69.51-1.65,1.03.03.31,2.83,5,3.11,5.29.37.37.66.36,1.06.62l-2.52-6.95ZM90.91,220.08c4-3.57,3.67-12.49-.27-15.99-4.27-3.78-9.4.82-11.31,4.82-3.37-1.03-6.22-1.41-8.61,1.65-4.93,6.31,4.23,17.62,11.53,14.64,1.92-.78,2.66-3.07,3.47-3.49.15-.08,1.96-.09,2.59-.28.68-.2,2.09-.9,2.6-1.36Z"/>
    <path class="cls-1" d="M123.13,196.66c-4.6,2.5-5.19-5.21-5.04-8.03.14-2.67,1.42-11.38,4.69-11.86,4.27-.63,3.66,7.19,2.54,9.75-1.69,3.86-4.64,3.21-4.57-.98.01-.92.31-3.53,1.65-3.02-.09,1.92-1.11,3.84.36,5.51,2.43-1.44,2.91-6.92,1.75-9.17-1.84-3.56-4.11,2.78-4.47,4.29-.6,2.53-1.69,10.69.56,12.32,2.1,1.52,3.26-1.37,3.79-2.94.26-.79.87-4.32,1-4.51.22-.32.75-.22,1.09-.23-.36,2.54-1.02,6.99-3.12,8.63l-.24.24Z"/>
    <path class="cls-7" d="M85.11,151.58c.16.08.16.16,0,.24v-.24Z"/>
    <path class="cls-14" d="M102.15,137.91c.16.08.16.16,0,.24v-.24Z"/>
    <path class="cls-11" d="M101.07,155.66c.11.11-.22.38-.24.12,0-.08.19-.17.24-.12Z"/>
    <rect class="cls-2" x="221.48" y="198.82" width=".24" height=".48"/>
    <path class="cls-8" d="M206.73,187.55c.16.08.16.16,0,.24v-.24Z"/>
    <path class="cls-12" d="M149.4,206.97c.16.08.16.16,0,.24v-.24Z"/>
    <path class="cls-3" d="M152.88,212.49c-.11-.11.22-.38.24-.12,0,.08-.19.17-.24.12Z"/>
    <path class="cls-9" d="M158.27,218.48c.16.08.16.16,0,.24v-.24Z"/>
    <path class="cls-6" d="M172.31,203.14c-.11-.11.22-.38.24-.12,0,.08-.19.17-.24.12Z"/>
    <path class="cls-15" d="M120.97,239.11v-.24s-.05-.15.12-.24l.12.12-.24.36Z"/>
    <polygon class="cls-9" points="122.17 236.47 122.17 236.95 121.94 236.95 122.17 236.47"/>
    <path class="cls-16" d="M121.45,245.58c.11-.11.38.22.12.24-.08,0-.17-.19-.12-.24Z"/>
    <path class="cls-3" d="M203.49,167.65c-.11-.11.22-.38.24-.12,0,.08-.19.17-.24.12Z"/>
    <path class="cls-13" d="M204.69,135.75c.11-.11.38.22.12.24-.08,0-.17-.19-.12-.24Z"/>
    <path class="cls-5" d="M76.12,206.97c.11-.11.38.22.12.24-.08,0-.17-.19-.12-.24Z"/>
    <path class="cls-10" d="M82.6,203.14c.11.11-.22.38-.24.12,0-.08.19-.17.24-.12Z"/>
    <path class="cls-4" d="M81.76,199.54c.16.08.16.16,0,.24v-.24Z"/>
    <path class="cls-1" d="M151.41,177.99c.46.37.21,4.91.26,5.86.17,3.31.37,6.76.73,10.06.26,2.42.75,4.83,1.19,7.22.11.61-1.15.79-1.19.43-1.23-7.8-1.85-15.69-1.92-23.6.26.05.78-.09.93.03Z"/>
    <path class="cls-1" d="M168.71,204.58v.96c-4.04.35-8.17.19-12.12,1.2l-.35-1.08c4.07-.9,8.3-1.09,12.47-1.07Z"/>
    <polygon class="cls-1" points="169.19 206.74 169.19 207.69 160.79 208.17 160.79 207.22 169.19 206.74"/>
    <path class="cls-1" d="M167.48,209.15l.26.58c-.03.84-7.23.89-8.15.84v-.96s7.89-.46,7.89-.46Z"/>
    <path class="cls-1" d="M201.99,145.62c.69-.14,2.01,1.01,2.17,1.57.32,1.11.35,3.78.29,4.99-.09,1.72-.48,3.96-.79,5.68-.25,1.37-1.55,8.77-4.01,5.83-1.78-2.12-.8-10.81-.16-13.6.29-1.28,1.01-4.19,2.5-4.48ZM202.2,146.8c-1.31.28-2.18,6.3-2.3,7.54-.29,2.87-.49,6.37.84,8.99,1.02-.03,2.43-8.93,2.52-10.19.06-.93.35-6.64-1.05-6.34Z"/>
  </g>
  <g>
    <path class="cls-1" d="M28.59,240.7c2.34-4.48,6.42-4.14,6.73,1.29s-3.07,15.37-5.55,20.36c-1.59,3.19-2.92,2.03-5.64.63-5.71-2.93-11.98-7.89-15.05-13.63-1.89-3.53-1.96-6.85,3-5.49-1.01-1.29-2.23-2.44-3.24-3.73-2.27-2.9-4.63-6.05-4.63-9.9,0-2.19.73-3.86,3.22-2.99l3.15,1.98c-3.27-5.32-5.96-13.1-4.21-19.33,1.35-4.81,5.08-7.37,8.84-2.91s5.43,11.45,6.79,17.21c.61-1.64,1.68-6.07,3.3-6.81s3.12,3.31,3.54,4.53c2.18,6.3-.38,12.47-.25,18.78l-.12.32c-.07-.03-.21.14-.17.21.13.23.32-.15.17-.21l.12-.32ZM26.97,262.86c-2.47-5.17-4.45-10.65-5.17-16.34l1.2-.19c.5,5.77,2.6,11.35,5.37,16.41,2.5-6.32,5.33-12.08,5.81-19,.13-1.89.11-6.13-2.76-4.64-1.88.97-2.27,4.02-2.96,4.53-.22.16-1.02.11-1.18-.1-.17-.22.16-5,.22-5.67.29-3.23,1.21-6.43,1.15-9.69s-.76-6.99-2.72-9.75c-.68-.19-2.17,3.58-2.38,4.27-.24.76-.68,4.03-.81,4.23-.23.35-.95.25-1.27.02-1.3-5.8-2.54-12.56-5.85-17.59-2.55-3.88-5.9-5.46-7.94-.06s.41,12.92,3.02,17.92c.49.94,2.76,3.94,2.62,4.74-.05.3-.65.68-.89.63-.38-.07-4.04-4.44-6.05-4.44-1.07,0-1.07,1.09-1.07,1.95.01,6.73,8.14,12.75,11.8,17.78-.26.07-.51.45-.7.5-1.03.28-4.72-5.16-7.14-3.47-.99.69.69,3.7,1.2,4.62,2.72,4.91,8.28,9.27,13.15,11.92,1.07.58,2.14,1.23,3.36,1.42-.03.07.14.21.21.17.23-.13-.15-.32-.21-.17ZM10.79,229.4l.1.22c.11-.14.07-.21-.1-.22ZM21.99,224.47l.1.22c.11-.14.07-.21-.1-.22ZM12.29,244.03l.1.22c.11-.14.07-.21-.1-.22Z"/>
    <path class="cls-7" d="M12.29,244.03c.17,0,.21.08.1.22l-.1-.22Z"/>
    <path class="cls-14" d="M21.99,224.47c.17,0,.21.08.1.22l-.1-.22Z"/>
    <path class="cls-11" d="M28.48,241.02c.15.05-.04.44-.17.21-.04-.07.1-.24.17-.21Z"/>
  </g>
  <g>
    <path class="cls-1" d="M27.24,174.09c-1.6-.9-2.99-1.9-2.98-3.9.01-2.3.68-5.81,1.03-8.19,1.19-8.13,2.74-16.46,5.34-24.26.93-.03,1.79-.4,2.71-.49,3.75-.38,8.76.46,12.41,1.41,1.26.33,9.42,2.82,9.77,3.3-1.19,7.76-2.77,15.47-4.08,23.22-.32,1.89-.76,3.94-.66,5.82-.28.63-.95.48-1.47.83-1.73,1.17-3.01,2.27-2.05,4.52.87,2.05,4.33,3.7-1.08,2.67-3.32-.63-7.07-1.46-10.36-2.24-.97-.23-1.9-.64-2.86-.9l-1.9,8.45c-.35-.17-1.11-.21-1.33-.45-.13-.15-.37-3.22-.54-3.83-.06-.2.03-.73-.42-.46-.57.35-1.45,4.31-3.28,3.25l1.74-8.75c.04.07.25.04.26-.04.06-.26-.34-.1-.26.04ZM54.44,142.66c-6.15-2.2-13.2-4.58-19.8-4.37-.64.02-2.61.09-2.99.49-.42.45-1.84,5.28-2.1,6.27-1.62,6.19-3.31,15.54-3.83,21.9-.02.28-.04.45.15.68,2.3-1.69,5.49-1.48,8.22-1.12,5.2.69,10.4,2.46,15.53,3.54l4.82-27.39ZM48.58,170.98c-5.62-1.21-11.72-3.5-17.47-3.59-4.01-.07-8.54,2.46-3.51,5.56l.96-2.93c1.19-.05,2.39-.33,3.57.07,2.76.95,1.85,2.68,1.12,4.88l13.63,3.02-.96-2.08c-.49-2.62.83-3.45,2.65-4.92.04.07.25.04.26-.04.06-.26-.34-.1-.26.04ZM25.57,167.78l-.07.23c.17-.03.2-.11.07-.23ZM30.55,181.16l2.17-8.88c.05-1.4-3.15-1.73-3.67-.76l-2,8.8,1.8-2.6c.29-.52.9-.62,1.14,0l.56,3.43ZM30.6,181.42l-.07.23c.17-.03.2-.11.07-.23Z"/>
    <path class="cls-12" d="M25.57,167.78c.12.12.1.2-.07.23l.07-.23Z"/>
    <path class="cls-3" d="M27.24,174.09c-.07-.14.33-.3.26-.04-.02.08-.23.11-.26.04Z"/>
    <path class="cls-9" d="M30.6,181.42c.12.12.1.2-.07.23l.07-.23Z"/>
    <path class="cls-6" d="M48.58,170.98c-.07-.14.33-.3.26-.04-.02.08-.23.11-.26.04Z"/>
    <path class="cls-1" d="M36.17,140.73c.32.49-1.27,4.74-1.51,5.66-.83,3.21-1.67,6.57-2.31,9.82-.47,2.39-.72,4.83-1.03,7.24-.08.62-1.33.41-1.26.06,1.16-7.81,2.93-15.52,5.23-23.09.24.12.77.15.88.31Z"/>
    <path class="cls-1" d="M44.72,171.28l-.29.91c-3.96-.87-7.85-2.26-11.92-2.49v-1.14c4.14.36,8.23,1.44,12.21,2.71Z"/>
    <polygon class="cls-1" points="44.53 173.48 44.24 174.39 36.09 172.34 36.37 171.42 44.53 173.48"/>
    <path class="cls-1" d="M42.18,175.28l.08.63c-.28.79-7.16-1.32-8.03-1.64l.29-.91,7.67,1.92Z"/>
  </g>
  <g>
    <path class="cls-1" d="M344.8,228.99c-1.68-.73-3.17-1.59-3.36-3.58-.22-2.29.09-5.85.2-8.25.36-8.21,1.08-16.65,2.88-24.67.92-.13,1.74-.58,2.65-.76,3.7-.75,8.76-.43,12.49.16,1.28.2,9.66,1.86,10.05,2.3-.41,7.84-1.2,15.67-1.73,23.51-.13,1.92-.36,4-.07,5.86-.22.66-.9.58-1.38.97-1.6,1.34-2.77,2.56-1.59,4.7,1.07,1.95,4.68,3.24-.81,2.76-3.37-.3-7.18-.74-10.53-1.19-.99-.13-1.96-.45-2.94-.6l-1.04,8.6c-.36-.14-1.13-.09-1.36-.32-.14-.13-.69-3.16-.92-3.75-.07-.19-.05-.73-.46-.41-.53.41-1.01,4.44-2.94,3.56l.85-8.88c.04.06.25.01.26-.07.04-.26-.35-.06-.26.07ZM368.7,194.99c-6.34-1.57-13.59-3.22-20.14-2.36-.64.08-2.59.35-2.93.79-.38.49-1.3,5.44-1.46,6.44-.99,6.32-1.73,15.79-1.61,22.17,0,.28,0,.45.22.66,2.12-1.92,5.32-2.02,8.06-1.94,5.24.16,10.59,1.4,15.81,1.96l2.04-27.73ZM365.72,223.75c-5.71-.64-12.01-2.3-17.75-1.82-3.99.34-8.25,3.31-2.93,5.88l.66-3.01c1.18-.17,2.35-.57,3.56-.29,2.84.66,2.11,2.48,1.6,4.75l13.87,1.63-1.16-1.97c-.75-2.55.48-3.52,2.14-5.17.04.06.25.01.26-.07.04-.26-.35-.06-.26.07ZM342.51,222.89l-.05.23c.17-.05.18-.13.05-.23ZM348.81,235.69l1.27-9.05c-.09-1.4-3.3-1.41-3.73-.39l-1.11,8.95,1.53-2.76c.24-.54.83-.71,1.14-.11l.9,3.36ZM348.88,235.96l-.05.23c.17-.05.18-.13.05-.23Z"/>
    <path class="cls-12" d="M342.51,222.89c.14.11.12.19-.05.23l.05-.23Z"/>
    <path class="cls-3" d="M344.8,228.99c-.09-.13.29-.33.26-.07-.01.08-.22.13-.26.07Z"/>
    <path class="cls-9" d="M348.88,235.96c.14.11.12.19-.05.23l.05-.23Z"/>
    <path class="cls-6" d="M365.72,223.75c-.09-.13.29-.33.26-.07-.01.08-.22.13-.26.07Z"/>
    <path class="cls-1" d="M350.32,194.91c.37.46-.79,4.85-.93,5.79-.5,3.28-1,6.7-1.31,10-.23,2.42-.24,4.88-.3,7.31-.02.62-1.28.54-1.25.18.37-7.89,1.35-15.74,2.88-23.5.25.1.78.07.91.22Z"/>
    <path class="cls-1" d="M361.9,224.44l-.19.94c-4.03-.47-8.04-1.46-12.11-1.27l-.13-1.13c4.17-.06,8.35.61,12.43,1.46Z"/>
    <polygon class="cls-1" points="361.94 226.65 361.75 227.59 353.42 226.36 353.62 225.43 361.94 226.65"/>
    <path class="cls-1" d="M359.78,228.68l.14.62c-.2.81-7.26-.59-8.15-.82l.19-.94,7.82,1.14Z"/>
  </g>
  <g>
    <path class="cls-1" d="M93.27,57.27l5.62,7.77,6.88,28.35c.2.67-1.29,1.3-1.87,1.56-1.17.53-6.13,1.86-7.09,1.12-.27-.2-.44-.48-.58-.79-2.3-9.79-4.98-19.55-6.74-29.44l2.85-8.05.93-.53ZM94.27,60.69c.03-.1-.97-1.65-1.32-1.56-.41,1.72-.81,2.05.31,3.71.43-.28.07-1.16.27-1.56.15-.31.73-.54.75-.59-.03.07.12.22.19.19.24-.11-.13-.33-.19-.19ZM92.36,63.17c-.51-.27-2.25,3.27-1.66,3.9,2.4-.3,4.81-.68,7.1-1.53-.61-.63-1-1.57-1.7-2.12-.47-.36-1.25-.25-1.49-1.06l-.57,3c-1.33.01-1.26-1.2-1.68-2.19ZM98.12,66.45l-3.5,1.26c-.84.3-2.84.22-3.82.35.13.26.03.57.39.63.94.16,5.36-1.03,6.31-1.5.33-.16.68-.3.62-.74ZM98.38,67.88c-2.32.98-4.71,1.58-7.16,2.06l5.03,20.33c2.61,0,4.86-.77,7.14-2.03l-5.02-20.36ZM103.58,89.46c-2.27,1.21-4.63,1.98-7.24,1.83.12.25.05.56.38.65,1.02.28,5.71-1.12,6.62-1.76.36-.26.5-.25.24-.72ZM103.92,91.12c-2.21,1.36-4.68,1.54-7.16,2.06l.5,2.11c2.51-.21,4.76-.81,7.1-1.77.42-.27-.28-1.98-.44-2.4.07.03.22-.12.19-.19-.11-.24-.33.13-.19.19Z"/>
    <path class="cls-3" d="M103.92,91.12c-.14-.07.08-.43.19-.19.03.08-.12.23-.19.19Z"/>
    <path class="cls-13" d="M94.27,60.69c.07-.14.43.08.19.19-.08.03-.23-.12-.19-.19Z"/>
    <path class="cls-1" d="M95.07,70.89c.61-.36,2.23.27,2.58.74.67.94,1.61,3.44,1.95,4.6.5,1.65.89,3.89,1.17,5.62.23,1.38,1.5,8.77-1.8,6.85-2.39-1.4-4.41-9.91-4.75-12.74-.16-1.3-.46-4.28.84-5.06ZM95.66,71.93c-1.14.71.08,6.67.38,7.88.69,2.8,1.69,6.16,3.83,8.17.95-.38-.73-9.23-1.07-10.44-.26-.9-1.91-6.37-3.13-5.61Z"/>
  </g>
  <path class="cls-1" d="M203.01,251.45c-3.85,3.54-6.3-3.79-6.84-6.56-.51-2.62-1.39-11.38,1.66-12.65,3.99-1.65,5.3,6.09,4.84,8.83-.69,4.16-3.72,4.24-4.67.17-.21-.89-.56-3.5.87-3.33.38,1.88-.14,4,1.69,5.26,2-1.99,1.14-7.42-.54-9.32-2.65-3-3.31,3.7-3.29,5.25.03,2.6.96,10.78,3.55,11.81,2.41.96,2.83-2.12,2.96-3.77.06-.83-.2-4.4-.13-4.62.13-.37.67-.4,1-.48.27,2.55.71,7.03-.92,9.13l-.17.29Z"/>
  <path class="cls-1" d="M251.39,182.37c-3.67,3.73-6.48-3.47-7.16-6.21-.64-2.6-1.97-11.3,1.02-12.72,3.9-1.85,5.6,5.81,5.28,8.58-.48,4.19-3.5,4.43-4.66.4-.25-.88-.73-3.47.7-3.37.48,1.86.06,4,1.95,5.16,1.9-2.09.76-7.47-1.01-9.28-2.8-2.86-3.12,3.86-3.02,5.41.17,2.6,1.51,10.72,4.14,11.62,2.45.84,2.72-2.26,2.76-3.92.02-.83-.43-4.39-.36-4.61.11-.37.65-.43.98-.53.4,2.53,1.07,6.99-.46,9.17l-.16.3Z"/>
  <g>
    <path class="cls-1" d="M394.5,39.44c2.7-4.27,6.73-3.61,6.6,1.82-.13,5.56-4.29,15.07-7.16,19.85-1.84,3.05-3.07,1.79-5.68.18-5.46-3.38-11.31-8.83-13.91-14.8-1.6-3.67-1.4-6.98,3.43-5.23-.9-1.37-2.02-2.61-2.93-3.98-2.03-3.07-4.13-6.4-3.83-10.24.17-2.18,1.04-3.79,3.45-2.72l2.98,2.23c-2.84-5.56-4.89-13.53-2.65-19.61,1.73-4.69,5.66-6.94,9.04-2.19s4.5,11.85,5.39,17.7c.73-1.58,2.16-5.92,3.84-6.52s2.84,3.55,3.17,4.8c1.67,6.45-1.38,12.4-1.75,18.7l-.14.31c-.07-.03-.22.12-.18.2.11.24.33-.13.18-.2l.14-.31ZM391.11,61.4c-2.05-5.35-3.59-10.97-3.85-16.7l1.21-.09c.03,5.79,1.68,11.53,4.04,16.79,2.99-6.1,6.28-11.61,7.32-18.47.28-1.87.6-6.1-2.38-4.84-1.95.82-2.58,3.83-3.31,4.27-.23.14-1.03.03-1.17-.19-.16-.24.56-4.97.67-5.63.55-3.2,1.72-6.31,1.92-9.57s-.2-7.03-1.93-9.94c-.66-.24-2.45,3.4-2.72,4.07-.3.74-1,3.96-1.15,4.15-.25.33-.97.18-1.27-.08-.84-5.88-1.52-12.72-4.42-18-2.24-4.07-5.45-5.92-7.91-.69-2.53,5.37-.63,12.91,1.57,18.1.41.98,2.44,4.15,2.23,4.93-.08.3-.71.62-.94.56-.37-.1-3.67-4.75-5.68-4.91-1.07-.09-1.16,1-1.23,1.86-.53,6.71,7.09,13.36,10.34,18.67-.26.05-.55.4-.74.44-1.05.2-4.29-5.53-6.84-4.03-1.04.61.39,3.74.82,4.7,2.31,5.11,7.51,9.9,12.15,12.94,1.02.67,2.03,1.4,3.24,1.69-.03.07.12.22.2.18.24-.11-.13-.33-.2-.18ZM377.66,26.75l.08.22c.12-.13.09-.2-.08-.22ZM389.22,22.73l.08.22c.12-.13.09-.2-.08-.22ZM377.98,41.45l.08.22c.12-.13.09-.2-.08-.22Z"/>
    <path class="cls-7" d="M377.98,41.45c.17.02.2.1.08.22l-.08-.22Z"/>
    <path class="cls-14" d="M389.22,22.73c.17.02.2.1.08.22l-.08-.22Z"/>
    <path class="cls-11" d="M394.36,39.75c.15.07-.08.44-.18.2-.03-.08.11-.23.18-.2Z"/>
  </g>
  <g>
    <path class="cls-1" d="M354.08,32.81l4.57,8.43,3.18,29c.11.69-1.44,1.12-2.05,1.3-1.23.37-6.31,1.05-7.17.2-.24-.24-.38-.54-.47-.86-1.03-10.01-2.43-20.03-2.91-30.06l3.86-7.61.99-.41ZM354.64,36.34c.04-.09-.75-1.76-1.11-1.72-.62,1.66-1.06,1.93-.17,3.72.46-.22.22-1.14.46-1.51.19-.29.79-.44.82-.49-.04.06.09.23.17.21.25-.07-.08-.34-.17-.21ZM352.42,38.55c-.48-.34-2.65,2.95-2.14,3.66,2.42,0,4.86-.05,7.23-.61-.53-.7-.79-1.69-1.41-2.32-.42-.42-1.2-.41-1.34-1.25l-.95,2.9c-1.32-.16-1.09-1.35-1.39-2.38ZM357.72,42.54l-3.63.8c-.87.19-2.85-.14-3.83-.14.1.27-.05.56.31.67.91.28,5.45-.33,6.45-.67.34-.12.71-.21.71-.66ZM357.8,44c-2.43.67-4.87.96-7.37,1.12l2.38,20.81c2.59.33,4.92-.14,7.35-1.1l-2.36-20.84ZM360.18,66.06c-2.4.91-4.85,1.37-7.41.89.08.26-.02.56.29.69.98.41,5.81-.38,6.79-.9.39-.21.53-.19.33-.68ZM360.31,67.75c-2.37,1.06-4.84.93-7.37,1.12l.23,2.16c2.51.12,4.83-.19,7.27-.85.46-.22-.02-2-.13-2.44.06.04.23-.09.21-.17-.07-.25-.34.08-.21.17Z"/>
    <path class="cls-3" d="M360.31,67.75c-.13-.09.14-.42.21-.17.02.08-.14.21-.21.17Z"/>
    <path class="cls-13" d="M354.64,36.34c.09-.13.42.14.17.21-.08.02-.21-.14-.17-.21Z"/>
    <path class="cls-1" d="M354.12,46.56c.65-.28,2.18.55,2.46,1.07.55,1.02,1.15,3.61,1.35,4.81.28,1.7.38,3.97.44,5.72.05,1.4.36,8.89-2.66,6.56-2.19-1.69-3.1-10.39-3.07-13.25.01-1.31.09-4.31,1.48-4.91ZM354.57,47.66c-1.22.55-.78,6.62-.63,7.86.33,2.86.89,6.33,2.74,8.6.99-.25.46-9.25.27-10.49-.14-.93-1.08-6.56-2.39-5.97Z"/>
  </g>
  <g>
    <path class="cls-1" d="M347.69,157.34c0-.08-.21-.13-.26-.06-.16.21.27.22.26.06,1.02.43,2.24.35,3.22.94,8.92,5.35-1.36,20.14-9.47,18.28-1.48-.34-2.91-1.6-3.89-1.85-.39-.1-3,.58-4.05.43-4.52-.64-6.97-6.36-6.94-10.46.05-7.77,6.73-14.11,13.71-8.63-.08,0-.13.21-.06.26.21.16.22-.27.06-.26.39,0,.89-5.9,1.44-6.46.7.05,3.91.48,4.06,1.1l-1.75,4.47c1.62-.5,3.29-2.37,5.12-2.07,2.64.45-.25,3.55-1.46,4.25ZM349.39,154.06l-.16.18c.17.04.22-.02.16-.18ZM343.6,157.32c1.78.04,3.88-.83,5.03-2.18.24-.28.35-.49.25-.87-.17-.36-1.4.24-1.67.37-1.28.63-2.64,1.63-3.62,2.67ZM344.33,151.31c-.39-.25-1.62-.72-1.92-.29-.18.25-1.11,5.64-1.08,6.05.04.52.27.71.4,1.16l2.6-6.92ZM342.98,175.62c5.36-.12,10.92-7.1,10.19-12.32-.78-5.65-7.67-5.5-11.73-3.69-1.89-2.97-3.81-5.11-7.61-4.34-7.85,1.59-8.25,16.13-.77,18.62,1.97.65,4.02-.61,4.91-.39.16.04,1.55,1.2,2.15,1.47.64.29,2.17.68,2.86.66Z"/>
    <path class="cls-5" d="M340.27,156.05c.16-.01.15.42-.06.26-.07-.05-.01-.25.06-.26Z"/>
    <path class="cls-10" d="M347.69,157.34c.01.16-.42.15-.26-.06.05-.07.25-.01.26.06Z"/>
    <path class="cls-4" d="M349.39,154.06c.07.16.01.22-.16.18l.16-.18Z"/>
  </g>
  <g>
    <path class="cls-1" d="M155.59,150.14c1.4.44,2.89.97,2.37,2.76-.1.35-.54.62-.52.89.03.44.7.8.53,2.02-.09.61-.52,1.04-.54,1.15-.07.69,2.11,2.46-1.11,3.26-1.31.33-4.62.14-6.13.05-1.35-.08-7.34-.45-7.76-1.75-.44-1.38.53-2.05.51-2.39-.02-.27-.53-.69-.56-1.32-.02-.34.28-3.03.37-3.49.38-2.06,2.32-1.43,2.48-2,.26-.91-3.9-6.55-4.51-8.34-3-8.76,3.45-19.12,13.3-15.67,7.33,2.57,10.21,11.81,6.2,18.36-1.39,2.27-4.25,3.71-4.63,6.46ZM148.47,137.54c1.07,1.08.96,3.35,1.49,4.16.34.51,1.83.27,2.04-.21.3-.69.4-2.29.68-3.17.43-1.39,2.31-4.92,3.58-2.28.82,1.69-.6,3.83-1.68,5.1-.33.39-1.1.8-1.28,1.11-.44.76-.71,7.1-.12,7.58,1.15.94,1.88-1.79,2.47-2.63.91-1.28,2.28-2.21,3.21-3.56,5.22-7.5.06-18.22-9.32-17.86-7.07.27-9.85,9.4-7.69,15.16,1.13,3,4.01,5.18,4.42,8.34l3.1.07-.15-6.26c-1.06-.02-1.73-.2-2.54-.87-2.98-2.41-.63-7.14,1.79-4.68ZM153.33,140.56l-.28.45.23.02.05-.48c1.12.03,2.75-4.09,1.71-4.17-.65-.05-1.76,3.47-1.71,4.17ZM148.85,142.07c.21-.19-.77-4.22-1.91-4.03-1.3,1.58.08,3.77,1.91,4.03ZM151.91,142.84c-.51.23-1.15.34-1.72.32.41,2.04.33,4.2.14,6.27l1.43.13c-.06.05.01.25.1.25.26,0,.03-.35-.1-.25l.12-6.49.27-.33-.11-.13c-.18.07-.13.22-.14.23ZM156.81,151.78c-1.07-.99-11.1-1.75-12.48-.95-.61.35-.46.99-.53,1.62,3.16.13,6.29.36,9.47.63.99.08,2.17.64,3.24-.06.37-.24.66-.91.31-1.23ZM156.59,154.38c-.21-.19-1.32.08-1.77.06-2.08-.11-9.57-1.29-10.91-.66-.7.33-.41,1.34-.01,1.81,2.54.13,5.07.58,7.61.71.51.03.97-.12,1.45-.11.89.02,3.66.66,3.99-.51.03-.13-.31-1.25-.36-1.3ZM156.92,158.95c.27-.31-.27-1.19-.6-1.37-.69-.39-1.16,0-1.8-.05-1.85-.13-3.68-.16-5.5-.26-1.06-.06-4.7-.69-5.29-.26-.14.1-.45.62-.42.79.09.26.32.33.53.45,1.18.66,9.94,1.18,11.67,1.01.21-.02,1.36-.25,1.41-.3Z"/>
    <path class="cls-15" d="M151.89,143.08l.02-.24s-.03-.15.14-.23l.11.13-.27.33Z"/>
    <polygon class="cls-9" points="153.33 140.56 153.28 141.04 153.04 141.02 153.33 140.56"/>
    <path class="cls-16" d="M151.77,149.57c.12-.1.36.26.1.25-.08,0-.16-.2-.1-.25Z"/>
  </g>
  <g>
    <path class="cls-1" d="M112.93,46.49c-1.79-.38-3.42-.92-4.01-2.83-.68-2.2-1.09-5.75-1.47-8.12-1.3-8.11-2.3-16.52-2.16-24.74.88-.31,1.58-.91,2.44-1.28,3.47-1.48,8.49-2.18,12.27-2.37,1.3-.06,9.83-.12,10.3.22,1.18,7.76,1.98,15.59,3.05,23.37.26,1.9.46,3.99,1.12,5.75-.08.69-.76.74-1.15,1.23-1.3,1.63-2.19,3.07-.61,4.93,1.44,1.69,5.24,2.23-.23,2.87-3.36.39-7.18.72-10.56.96-.99.07-2.01-.04-3,0l.72,8.63c-.38-.06-1.12.14-1.4-.04-.16-.1-1.32-2.96-1.66-3.49-.11-.17-.19-.7-.54-.31-.44.5-.09,4.55-2.16,4.08l-.96-8.87c.05.05.25-.04.24-.12-.02-.26-.35,0-.24.12ZM129.49,8.36c-6.52-.26-13.96-.42-20.2,1.75-.61.21-2.47.86-2.71,1.37-.27.56-.18,5.59-.13,6.61.3,6.39,1.49,15.81,2.9,22.04.06.27.09.44.35.6,1.69-2.31,4.8-3.05,7.51-3.52,5.17-.9,10.66-.76,15.88-1.27l-3.6-27.58ZM132.36,37.14c-5.72.53-12.23.17-17.75,1.8-3.84,1.14-7.41,4.91-1.68,6.35l.04-3.08c1.12-.4,2.19-1.03,3.43-1,2.92.08,2.57,2.01,2.53,4.33l13.91-1.2-1.53-1.7c-1.25-2.35-.24-3.54,1.06-5.49.05.05.25-.04.24-.12-.02-.26-.35,0-.24.12ZM109.46,40.98v.24c.16-.08.16-.16,0-.24ZM118.21,52.25l-.58-9.12c-.37-1.35-3.52-.71-3.73.37l.72,8.99.94-3.01c.13-.58.67-.86,1.09-.33l1.56,3.11ZM118.33,52.49v.24c.16-.08.16-.16,0-.24Z"/>
    <path class="cls-12" d="M109.46,40.98c.16.08.16.16,0,.24v-.24Z"/>
    <path class="cls-3" d="M112.93,46.49c-.11-.11.22-.38.24-.12,0,.08-.19.17-.24.12Z"/>
    <path class="cls-9" d="M118.33,52.49c.16.08.16.16,0,.24v-.24Z"/>
    <path class="cls-6" d="M132.36,37.14c-.11-.11.22-.38.24-.12,0,.08-.19.17-.24.12Z"/>
    <path class="cls-1" d="M111.47,11.99c.46.37.21,4.91.26,5.86.17,3.31.37,6.76.73,10.06.26,2.42.75,4.83,1.19,7.22.11.61-1.15.79-1.19.43-1.23-7.8-1.85-15.69-1.92-23.6.26.05.78-.09.93.03Z"/>
    <path class="cls-1" d="M128.77,38.58v.96c-4.04.35-8.17.19-12.12,1.2l-.35-1.08c4.07-.9,8.3-1.09,12.47-1.07Z"/>
    <polygon class="cls-1" points="129.25 40.74 129.25 41.69 120.85 42.17 120.85 41.22 129.25 40.74"/>
    <path class="cls-1" d="M127.54,43.16l.26.58c-.03.84-7.23.89-8.15.84v-.96s7.89-.46,7.89-.46Z"/>
  </g>
  <g>
    <path class="cls-1" d="M389.3,107.74c1.38.51,2.84,1.11,2.23,2.87-.12.34-.57.59-.57.86,0,.45.66.83.42,2.05-.12.61-.58,1.01-.59,1.12-.1.68,1.98,2.57-1.27,3.2-1.33.26-4.63-.1-6.13-.27-1.35-.15-7.31-.82-7.66-2.14-.37-1.4.63-2.03.63-2.36,0-.27-.49-.71-.49-1.34,0-.34.44-3.01.55-3.46.49-2.04,2.39-1.3,2.58-1.87.31-.89-3.56-6.74-4.08-8.56-2.55-8.9,4.42-18.92,14.08-14.97,7.19,2.94,9.59,12.31,5.26,18.65-1.5,2.2-4.43,3.49-4.96,6.21ZM382.84,94.79c1.01,1.14.79,3.4,1.28,4.23.31.53,1.82.36,2.04-.11.33-.68.52-2.26.84-3.13.5-1.36,2.55-4.79,3.69-2.1.73,1.73-.79,3.79-1.94,5.01-.35.38-1.14.74-1.34,1.04-.47.74-1.07,7.06-.51,7.57,1.1.99,1.97-1.69,2.6-2.5.97-1.23,2.39-2.09,3.39-3.39,5.59-7.22.99-18.19-8.4-18.32-7.07-.09-10.32,8.88-8.45,14.75.97,3.05,3.74,5.38,3.99,8.55l3.1.23.17-6.26c-1.06-.07-1.71-.29-2.5-.99-2.85-2.56-.27-7.16,2.02-4.58ZM387.54,98.06l-.3.44.23.03.07-.47c1.12.08,2.96-3.94,1.92-4.08-.65-.08-1.94,3.38-1.92,4.08ZM382.99,99.33c.22-.17-.55-4.25-1.7-4.12-1.38,1.51-.11,3.76,1.7,4.12ZM386.01,100.26c-.52.21-1.17.28-1.73.24.3,2.06.12,4.21-.18,6.27l1.43.21c-.06.05,0,.25.08.25.26.02.04-.35-.08-.25l.45-6.48.29-.32-.1-.14c-.18.07-.14.21-.15.22ZM390.44,109.43c-1.01-1.04-11-2.31-12.42-1.59-.63.32-.51.96-.61,1.59,3.15.29,6.27.68,9.42,1.11.99.13,2.13.75,3.24.11.38-.22.7-.88.37-1.22ZM390.09,112.02c-.2-.2-1.32.01-1.77-.03-2.07-.22-9.49-1.78-10.86-1.21-.72.29-.48,1.31-.1,1.81,2.53.26,5.04.84,7.57,1.09.51.05.98-.07,1.45-.04.89.06,3.62.84,4.01-.3.04-.12-.24-1.27-.29-1.31ZM390.18,116.61c.28-.3-.21-1.2-.53-1.4-.67-.42-1.16-.06-1.79-.14-1.84-.23-3.66-.35-5.48-.54-1.06-.11-4.65-.93-5.27-.53-.15.1-.48.6-.46.77.07.27.3.35.51.47,1.15.72,9.87,1.68,11.61,1.6.21,0,1.37-.18,1.42-.23Z"/>
    <path class="cls-15" d="M385.97,100.49l.03-.24s-.03-.15.15-.22l.1.14-.29.32Z"/>
    <polygon class="cls-9" points="387.54 98.06 387.47 98.53 387.23 98.49 387.54 98.06"/>
    <path class="cls-16" d="M385.52,106.97c.13-.1.35.27.08.25-.08,0-.15-.21-.08-.25Z"/>
  </g>
  <g>
    <path class="cls-1" d="M172.04,21.49c0-.08-.21-.13-.26-.07-.16.21.27.22.26.07,1.02.43,2.24.35,3.22.94,8.91,5.36-1.39,20.14-9.49,18.27-1.48-.34-2.91-1.61-3.88-1.86-.39-.1-3,.57-4.05.42-4.52-.65-6.96-6.37-6.93-10.47.06-7.77,6.75-14.1,13.72-8.61-.08,0-.13.21-.07.26.21.16.22-.27.07-.26.39,0,.9-5.9,1.45-6.46.7.05,3.91.49,4.06,1.11l-1.75,4.47c1.62-.5,3.3-2.37,5.12-2.06,2.64.45-.25,3.55-1.47,4.25ZM173.75,18.21l-.16.18c.17.04.22-.02.16-.18ZM167.96,21.46c1.78.05,3.88-.83,5.04-2.17.24-.28.35-.49.25-.87-.17-.36-1.4.24-1.67.37-1.28.63-2.64,1.63-3.62,2.67ZM168.69,15.45c-.39-.25-1.62-.72-1.92-.29-.18.25-1.12,5.64-1.09,6.05.04.52.27.71.4,1.16l2.61-6.92ZM167.31,39.76c5.36-.11,10.93-7.09,10.21-12.31-.78-5.66-7.67-5.51-11.72-3.71-1.88-2.97-3.8-5.12-7.61-4.35-7.85,1.58-8.27,16.12-.79,18.62,1.97.66,4.02-.6,4.91-.39.16.04,1.55,1.21,2.15,1.48.64.29,2.17.68,2.86.66Z"/>
    <path class="cls-5" d="M164.63,20.18c.16-.01.15.42-.07.26-.07-.05-.01-.25.07-.26Z"/>
    <path class="cls-10" d="M172.04,21.49c.01.16-.42.14-.26-.07.05-.07.25-.01.26.07Z"/>
    <path class="cls-4" d="M173.75,18.21c.07.16.01.22-.16.18l.16-.18Z"/>
  </g>
  <g>
    <path class="cls-1" d="M401.9,226.55l4.99,8.19,4.61,28.8c.14.68-1.38,1.19-1.98,1.41-1.21.43-6.25,1.37-7.15.56-.25-.22-.4-.52-.51-.83-1.52-9.94-3.42-19.88-4.4-29.88l3.48-7.8.97-.46ZM402.64,230.04c.04-.1-.83-1.72-1.19-1.66-.54,1.69-.96,1.98.02,3.72.45-.25.16-1.15.39-1.53.18-.3.77-.48.79-.53-.04.07.1.23.18.2.25-.09-.1-.34-.18-.2ZM400.53,232.36c-.49-.31-2.5,3.08-1.96,3.76,2.42-.11,4.85-.29,7.2-.96-.56-.68-.87-1.65-1.53-2.25-.44-.4-1.22-.35-1.4-1.18l-.81,2.94c-1.33-.1-1.16-1.29-1.5-2.31ZM406.02,236.08l-3.59.98c-.86.23-2.85,0-3.84.05.11.27-.02.57.34.66.92.23,5.43-.6,6.41-.99.34-.13.7-.24.67-.69ZM406.17,237.53c-2.39.79-4.82,1.21-7.3,1.49l3.41,20.67c2.6.2,4.91-.38,7.28-1.46l-3.39-20.7ZM409.64,259.45c-2.36,1.03-4.78,1.61-7.36,1.26.1.26.01.56.33.68,1,.36,5.78-.66,6.74-1.24.38-.23.52-.21.29-.7ZM409.85,261.13c-2.31,1.18-4.79,1.17-7.3,1.49l.33,2.14c2.52,0,4.81-.43,7.21-1.21.44-.24-.12-2-.25-2.43.07.04.23-.1.2-.18-.09-.25-.34.1-.2.18Z"/>
    <path class="cls-3" d="M409.85,261.13c-.14-.08.11-.43.2-.18.03.08-.13.22-.2.18Z"/>
    <path class="cls-13" d="M402.64,230.04c.08-.14.43.11.18.2-.08.03-.22-.13-.18-.2Z"/>
    <path class="cls-1" d="M402.62,240.27c.63-.31,2.21.44,2.51.95.6.99,1.33,3.55,1.58,4.74.36,1.68.58,3.95.73,5.69.12,1.39.81,8.86-2.33,6.68-2.27-1.58-3.61-10.22-3.72-13.08-.05-1.31-.12-4.31,1.24-4.98ZM403.13,241.35c-1.19.62-.45,6.65-.24,7.88.47,2.84,1.2,6.28,3.17,8.45.97-.3,0-9.26-.25-10.49-.18-.92-1.4-6.5-2.68-5.84Z"/>
  </g>
  <g>
    <path class="cls-1" d="M298.32,35.12c1.33.62,2.74,1.34,1.99,3.04-.15.33-.61.54-.63.81-.03.44.59.88.26,2.08-.17.6-.66.96-.68,1.07-.16.67,1.77,2.72-1.53,3.09-1.34.15-4.6-.47-6.09-.76-1.33-.26-7.22-1.4-7.46-2.75-.26-1.42.79-1.97.82-2.3.02-.27-.43-.75-.38-1.38.03-.34.68-2.97.82-3.41.65-1.99,2.49-1.11,2.73-1.65.38-.87-3.01-7.01-3.38-8.86-1.82-9.07,5.92-18.51,15.24-13.79,6.93,3.51,8.57,13.04,3.74,19.01-1.67,2.07-4.69,3.12-5.44,5.79ZM292.92,21.7c.92,1.22.51,3.45.94,4.32.27.55,1.78.5,2.05.06.39-.65.7-2.21,1.09-3.05.61-1.32,2.93-4.57,3.84-1.8.59,1.78-1.09,3.71-2.33,4.84-.38.35-1.2.64-1.42.93-.53.7-1.63,6.95-1.11,7.5,1.01,1.08,2.09-1.53,2.8-2.28,1.07-1.15,2.55-1.9,3.65-3.11,6.16-6.75,2.45-18.06-6.9-18.93-7.04-.66-11,8.03-9.61,14.02.73,3.12,3.3,5.66,3.29,8.85l3.07.48.67-6.23c-1.05-.16-1.68-.43-2.41-1.19-2.64-2.78.31-7.16,2.39-4.4ZM297.34,25.33l-.34.41.23.05.11-.47c1.11.17,3.26-3.69,2.24-3.91-.64-.14-2.2,3.21-2.24,3.91ZM292.7,26.24c.23-.16-.21-4.28-1.36-4.24-1.5,1.4-.41,3.74,1.36,4.24ZM295.64,27.4c-.54.16-1.19.19-1.75.1.14,2.08-.22,4.2-.68,6.24l1.4.32c-.06.04-.02.25.06.26.26.04.07-.35-.06-.26l.97-6.42.32-.29-.09-.15c-.18.05-.16.2-.17.21ZM299.32,36.9c-.93-1.12-10.77-3.19-12.25-2.58-.65.27-.58.92-.74,1.54,3.12.54,6.19,1.18,9.3,1.86.97.21,2.07.92,3.22.37.4-.19.77-.82.46-1.18ZM298.76,39.45c-.19-.21-1.32-.09-1.76-.17-2.05-.38-9.32-2.53-10.73-2.08-.74.24-.58,1.27-.25,1.79,2.5.46,4.95,1.24,7.45,1.7.5.09.98,0,1.45.08.88.13,3.55,1.13,4.02.02.05-.12-.14-1.28-.19-1.33ZM298.49,44.03c.3-.27-.11-1.22-.41-1.44-.63-.48-1.15-.16-1.78-.28-1.82-.37-3.62-.64-5.42-.98-1.05-.19-4.56-1.3-5.21-.95-.15.08-.52.56-.52.73.05.27.27.37.47.51,1.09.81,9.7,2.47,11.44,2.53.21,0,1.38-.06,1.43-.11Z"/>
    <path class="cls-15" d="M295.58,27.63l.05-.23s-.01-.16.17-.21l.09.15-.32.29Z"/>
    <polygon class="cls-9" points="297.34 25.33 297.23 25.79 297 25.74 297.34 25.33"/>
    <path class="cls-16" d="M294.61,34.05c.14-.09.32.3.06.26-.08-.01-.13-.22-.06-.26Z"/>
  </g>
  <g>
    <path class="cls-1" d="M237.54,261.06c-1.79-.38-3.42-.92-4.01-2.83-.68-2.2-1.09-5.75-1.47-8.12-1.3-8.11-2.3-16.52-2.16-24.74.88-.31,1.58-.91,2.44-1.28,3.47-1.48,8.49-2.18,12.27-2.37,1.3-.06,9.83-.12,10.3.22,1.18,7.76,1.98,15.59,3.05,23.37.26,1.9.46,3.99,1.12,5.75-.08.69-.76.74-1.15,1.23-1.3,1.63-2.19,3.07-.61,4.93,1.44,1.69,5.24,2.23-.23,2.87-3.36.39-7.18.72-10.56.96-.99.07-2.01-.04-3,0l.72,8.63c-.38-.06-1.12.14-1.4-.04-.16-.1-1.32-2.96-1.66-3.49-.11-.17-.19-.7-.54-.31-.44.5-.09,4.55-2.16,4.08l-.96-8.87c.05.05.25-.04.24-.12-.02-.26-.35,0-.24.12ZM254.1,222.93c-6.52-.26-13.96-.42-20.2,1.75-.61.21-2.47.86-2.71,1.37-.27.56-.18,5.59-.13,6.61.3,6.39,1.49,15.81,2.9,22.04.06.27.09.44.35.6,1.69-2.31,4.8-3.05,7.51-3.52,5.17-.9,10.66-.76,15.88-1.27l-3.6-27.58ZM256.97,251.71c-5.72.53-12.23.17-17.75,1.8-3.84,1.14-7.41,4.91-1.68,6.35l.04-3.08c1.12-.4,2.19-1.03,3.43-1,2.92.08,2.57,2.01,2.53,4.33l13.91-1.2-1.53-1.7c-1.25-2.35-.24-3.54,1.06-5.49.05.05.25-.04.24-.12-.02-.26-.35,0-.24.12ZM234.07,255.54v.24c.16-.08.16-.16,0-.24ZM242.82,266.81l-.58-9.12c-.37-1.35-3.52-.71-3.73.37l.72,8.99.94-3.01c.13-.58.67-.86,1.09-.33l1.56,3.11ZM242.94,267.05v.24c.16-.08.16-.16,0-.24Z"/>
    <path class="cls-12" d="M234.07,255.54c.16.08.16.16,0,.24v-.24Z"/>
    <path class="cls-3" d="M237.54,261.06c-.11-.11.22-.38.24-.12,0,.08-.19.17-.24.12Z"/>
    <path class="cls-9" d="M242.94,267.05c.16.08.16.16,0,.24v-.24Z"/>
    <path class="cls-6" d="M256.97,251.71c-.11-.11.22-.38.24-.12,0,.08-.19.17-.24.12Z"/>
    <path class="cls-1" d="M236.08,226.56c.46.37.21,4.91.26,5.86.17,3.31.37,6.76.73,10.06.26,2.42.75,4.83,1.19,7.22.11.61-1.15.79-1.19.43-1.23-7.8-1.85-15.69-1.92-23.6.26.05.78-.09.93.03Z"/>
    <path class="cls-1" d="M253.38,253.15v.96c-4.04.35-8.17.19-12.12,1.2l-.35-1.08c4.07-.9,8.3-1.09,12.47-1.07Z"/>
    <polygon class="cls-1" points="253.86 255.3 253.86 256.26 245.46 256.74 245.46 255.78 253.86 255.3"/>
    <path class="cls-1" d="M252.15,257.72l.26.58c-.03.84-7.23.89-8.15.84v-.96s7.89-.46,7.89-.46Z"/>
  </g>
  <path class="cls-1" d="M375.76,260.16c-3.66,3.73-6.49-3.46-7.17-6.2-.65-2.6-1.97-11.3,1.01-12.72,3.9-1.85,5.6,5.81,5.29,8.57-.48,4.19-3.5,4.43-4.66.41-.25-.88-.73-3.47.69-3.37.48,1.86.07,4,1.96,5.16,1.9-2.09.76-7.47-1.02-9.28-2.8-2.86-3.12,3.87-3.02,5.42.17,2.6,1.51,10.72,4.15,11.62,2.45.84,2.72-2.26,2.76-3.92.02-.83-.43-4.39-.36-4.61.11-.37.65-.43.98-.54.4,2.53,1.07,6.99-.45,9.17l-.16.3Z"/>
  <path class="cls-1" d="M79,261.24c-3.28,4.08-6.79-2.81-7.74-5.47-.9-2.52-3.07-11.05-.24-12.76,3.69-2.23,6.15,5.23,6.1,8.01-.07,4.21-3.05,4.75-4.6.86-.34-.85-1.07-3.38.36-3.43.66,1.81.46,3.97,2.45,4.95,1.68-2.27.02-7.51-1.92-9.14-3.07-2.57-2.72,4.15-2.47,5.69.42,2.57,2.56,10.52,5.27,11.15,2.52.59,2.48-2.52,2.36-4.17-.06-.83-.86-4.32-.81-4.55.08-.38.6-.49.92-.63.65,2.48,1.75,6.85.45,9.17l-.13.31Z"/>
  <g>
    <path class="cls-1" d="M79.8,2.83l2.66,9.21-3.11,29c-.04.7-1.65.79-2.28.84-1.28.1-6.39-.32-7.05-1.34-.18-.28-.25-.61-.28-.94,1.14-9.99,1.92-20.08,3.6-29.98l5.4-6.61,1.06-.18ZM79.59,6.4c.06-.08-.35-1.88-.72-1.92-.97,1.49-1.45,1.65-.96,3.59.5-.12.45-1.06.78-1.38.25-.24.87-.26.9-.3-.05.05.04.25.12.24.26-.02,0-.35-.12-.24ZM76.95,8.08c-.39-.43-3.23,2.32-2.88,3.11,2.36.53,4.75.99,7.2.96-.37-.8-.41-1.82-.88-2.57-.32-.5-1.09-.65-1.04-1.5l-1.55,2.63c-1.25-.44-.78-1.55-.84-2.63ZM81.27,13.11h-3.72c-.89,0-2.75-.75-3.72-.96.03.29-.17.54.16.72.83.47,5.39.84,6.45.72.36-.04.74-.05.83-.49ZM81.03,14.55c-2.51.13-4.96-.1-7.44-.48l-2.13,20.84c2.46.87,4.84.92,7.41.5l2.16-20.86ZM78.63,36.61c-2.54.37-5.03.3-7.43-.72.03.27-.14.55.14.74.87.61,5.75.88,6.83.58.43-.12.56-.07.47-.6ZM78.39,38.29c-2.54.53-4.93-.13-7.43-.48l-.24,2.16c2.43.65,4.75.85,7.28.73.49-.11.41-1.96.4-2.41.05.05.25-.04.24-.12-.02-.26-.35,0-.24.12Z"/>
    <path class="cls-3" d="M78.39,38.29c-.11-.11.22-.38.24-.12,0,.08-.19.17-.24.12Z"/>
    <path class="cls-13" d="M79.59,6.4c.11-.11.38.22.12.24-.08,0-.17-.19-.12-.24Z"/>
    <path class="cls-1" d="M76.89,16.26c.69-.14,2.01,1.01,2.17,1.57.32,1.11.35,3.78.29,4.99-.09,1.72-.48,3.96-.79,5.68-.25,1.37-1.55,8.77-4.01,5.83-1.78-2.12-.8-10.81-.16-13.6.29-1.28,1.01-4.19,2.5-4.48ZM77.1,17.44c-1.31.28-2.18,6.3-2.3,7.54-.29,2.87-.49,6.37.84,8.99,1.02-.03,2.43-8.93,2.52-10.19.06-.93.35-6.64-1.05-6.34Z"/>
  </g>
  <g>
    <path class="cls-1" d="M71.11,123.07c1.47.11,3.04.28,2.94,2.14-.02.36-.38.72-.31.98.13.43.86.62.98,1.85.06.62-.27,1.13-.26,1.24.09.69,2.62,1.91-.33,3.43-1.2.62-4.47,1.2-5.96,1.45-1.34.23-7.25,1.25-7.95.08-.75-1.24.04-2.12-.05-2.44-.08-.26-.67-.55-.85-1.15-.1-.33-.42-3.01-.44-3.48-.1-2.09,1.93-1.92,1.96-2.51.05-.95-5.3-5.48-6.31-7.08-4.93-7.83-1.04-19.4,9.35-18.3,7.72.82,12.65,9.15,10.25,16.44-.83,2.53-3.28,4.58-3.03,7.35ZM61.29,112.43c1.29.81,1.7,3.04,2.41,3.7.45.42,1.84-.16,1.93-.67.13-.74-.13-2.32-.07-3.24.1-1.45,1.11-5.31,2.96-3.05,1.18,1.46.3,3.86-.46,5.35-.23.46-.89,1.03-.99,1.38-.25.84.95,7.08,1.63,7.41,1.33.65,1.42-2.17,1.8-3.12.59-1.45,1.71-2.68,2.31-4.21,3.36-8.5-4.13-17.75-13.18-15.24-6.82,1.89-7.43,11.41-4,16.52,1.79,2.66,5.09,4.12,6.22,7.1l3.04-.65-1.59-6.06c-1.04.23-1.73.2-2.67-.26-3.45-1.66-2.26-6.8.67-4.96ZM66.71,114.26l-.17.51.23-.03-.06-.47c1.1-.23,1.74-4.61.71-4.45-.64.1-.92,3.78-.71,4.45ZM62.69,116.76c.16-.23-1.72-3.93-2.78-3.48-.91,1.84.95,3.65,2.78,3.48ZM65.85,116.8c-.44.34-1.04.6-1.6.71.87,1.89,1.29,4.01,1.58,6.07l1.43-.2c-.05.06.07.24.15.22.26-.05-.06-.35-.15-.22l-1.37-6.35.19-.39-.14-.1c-.15.11-.08.24-.09.25ZM72.67,124.37c-1.26-.72-11.2.85-12.37,1.94-.51.48-.22,1.07-.15,1.7,3.11-.6,6.21-1.1,9.36-1.57.99-.15,2.26.13,3.14-.8.31-.32.43-1.04.01-1.27ZM73.06,126.96c-.25-.13-1.27.38-1.71.46-2.05.37-9.61.94-10.77,1.87-.61.48-.09,1.4.41,1.77,2.5-.46,5.07-.6,7.57-1.06.5-.09.92-.34,1.38-.44.87-.19,3.72-.2,3.76-1.41,0-.13-.59-1.15-.65-1.18ZM74.43,131.33c.19-.37-.54-1.1-.9-1.2-.76-.22-1.13.26-1.76.37-1.83.3-3.62.69-5.42,1.01-1.05.19-4.73.4-5.21.96-.11.13-.29.71-.23.87.14.24.39.25.62.31,1.3.37,9.95-1.14,11.59-1.7.2-.07,1.27-.55,1.3-.62Z"/>
    <path class="cls-15" d="M65.88,117.04l-.03-.24s-.07-.14.09-.25l.14.1-.19.39Z"/>
    <polygon class="cls-9" points="66.71 114.26 66.77 114.73 66.54 114.76 66.71 114.26"/>
    <path class="cls-16" d="M67.26,123.38c.1-.13.41.17.15.22-.08.02-.2-.16-.15-.22Z"/>
  </g>
  <g>
    <path class="cls-1" d="M54.61,192.24l2.66,9.21-3.11,29c-.04.7-1.65.79-2.28.84-1.28.1-6.39-.32-7.05-1.34-.18-.28-.25-.61-.28-.94,1.14-9.99,1.92-20.08,3.6-29.98l5.4-6.61,1.06-.18ZM54.4,195.81c.06-.08-.35-1.88-.72-1.92-.97,1.49-1.45,1.65-.96,3.59.5-.12.45-1.06.78-1.38.25-.24.87-.26.9-.3-.05.05.04.25.12.24.26-.02,0-.35-.12-.24ZM51.76,197.49c-.39-.43-3.23,2.32-2.88,3.11,2.36.53,4.75.99,7.2.96-.37-.8-.41-1.82-.88-2.57-.32-.5-1.09-.65-1.04-1.5l-1.55,2.63c-1.25-.44-.78-1.55-.84-2.63ZM56.08,202.52h-3.72c-.89,0-2.75-.75-3.72-.96.03.29-.17.54.16.72.83.47,5.39.84,6.45.72.36-.04.74-.05.83-.49ZM55.84,203.96c-2.51.13-4.96-.1-7.44-.48l-2.13,20.84c2.46.87,4.84.92,7.41.5l2.16-20.86ZM53.44,226.03c-2.54.37-5.03.3-7.43-.72.03.27-.14.55.14.74.87.61,5.75.88,6.83.58.43-.12.56-.07.47-.6ZM53.2,227.7c-2.54.53-4.93-.13-7.43-.48l-.24,2.16c2.43.65,4.75.85,7.28.73.49-.11.41-1.96.4-2.41.05.05.25-.04.24-.12-.02-.26-.35,0-.24.12Z"/>
    <path class="cls-3" d="M53.2,227.7c-.11-.11.22-.38.24-.12,0,.08-.19.17-.24.12Z"/>
    <path class="cls-13" d="M54.4,195.81c.11-.11.38.22.12.24-.08,0-.17-.19-.12-.24Z"/>
    <path class="cls-1" d="M51.7,205.68c.69-.14,2.01,1.01,2.17,1.57.32,1.11.35,3.78.29,4.99-.09,1.72-.48,3.96-.79,5.68-.25,1.37-1.55,8.77-4.01,5.83-1.78-2.12-.8-10.81-.16-13.6.29-1.28,1.01-4.19,2.5-4.48ZM51.91,206.85c-1.31.28-2.18,6.3-2.3,7.54-.29,2.87-.49,6.37.84,8.99,1.02-.03,2.43-8.93,2.52-10.19.06-.93.35-6.64-1.05-6.34Z"/>
  </g>
  <g>
    <path class="cls-1" d="M255.85,5.71l4.8,8.31,3.95,28.9c.13.69-1.41,1.16-2.02,1.36-1.22.41-6.28,1.22-7.16.39-.24-.23-.39-.53-.49-.84-1.29-9.98-2.96-19.96-3.71-29.97l3.65-7.71.98-.43ZM256.5,9.22c.04-.09-.79-1.74-1.16-1.69-.58,1.67-1.01,1.95-.07,3.72.46-.24.19-1.14.42-1.52.18-.29.78-.46.8-.51-.04.07.09.23.17.2.25-.08-.09-.34-.17-.2ZM254.34,11.49c-.48-.32-2.58,3.02-2.05,3.71,2.42-.06,4.85-.18,7.22-.8-.55-.69-.83-1.67-1.47-2.28-.43-.41-1.22-.37-1.37-1.21l-.88,2.92c-1.32-.13-1.13-1.32-1.45-2.35ZM259.74,15.34l-3.61.89c-.87.21-2.85-.07-3.84-.04.1.27-.03.57.33.66.92.25,5.44-.48,6.43-.85.34-.13.71-.23.69-.67ZM259.86,16.79c-2.41.73-4.84,1.09-7.33,1.32l2.93,20.74c2.6.26,4.92-.27,7.31-1.29l-2.91-20.77ZM262.83,38.79c-2.38.97-4.81,1.5-7.39,1.09.09.26,0,.56.31.69.99.38,5.79-.53,6.77-1.08.39-.22.53-.2.31-.69ZM263,40.47c-2.34,1.13-4.81,1.06-7.33,1.32l.28,2.15c2.52.05,4.82-.32,7.24-1.04.45-.23-.07-2-.19-2.43.07.04.23-.09.2-.17-.08-.25-.34.09-.2.17Z"/>
    <path class="cls-3" d="M263,40.47c-.14-.08.12-.42.2-.17.03.08-.14.21-.2.17Z"/>
    <path class="cls-13" d="M256.5,9.22c.08-.14.42.12.17.2-.08.03-.21-.14-.17-.2Z"/>
    <path class="cls-1" d="M256.25,19.45c.64-.3,2.19.49,2.49,1,.57,1,1.25,3.58,1.48,4.77.32,1.69.49,3.96.59,5.71.09,1.39.6,8.88-2.49,6.63-2.24-1.63-3.37-10.3-3.42-13.16-.02-1.31-.02-4.31,1.35-4.95ZM256.73,20.54c-1.21.59-.6,6.64-.42,7.88.41,2.85,1.05,6.3,2.97,8.52.98-.28.22-9.26,0-10.5-.16-.92-1.25-6.53-2.54-5.9Z"/>
  </g>
  <path class="cls-1" d="M8.06,154.09c-4.6,2.5-5.19-5.21-5.04-8.03.14-2.67,1.42-11.38,4.69-11.86,4.27-.63,3.66,7.19,2.54,9.75-1.69,3.86-4.64,3.21-4.57-.98.01-.92.31-3.53,1.65-3.02-.09,1.92-1.11,3.84.36,5.51,2.43-1.44,2.91-6.92,1.75-9.17-1.84-3.56-4.11,2.78-4.47,4.29-.6,2.53-1.69,10.69.56,12.32,2.1,1.52,3.26-1.37,3.79-2.94.26-.79.87-4.32,1-4.51.22-.32.75-.22,1.09-.23-.36,2.54-1.02,6.99-3.12,8.63l-.24.24Z"/>
  <path class="cls-1" d="M183.07,76.99c-3.73,3.67-6.42-3.58-7.05-6.33-.6-2.61-1.77-11.33,1.24-12.7,3.93-1.78,5.5,5.91,5.13,8.67-.56,4.18-3.58,4.37-4.67.32-.24-.89-.67-3.48.76-3.36.44,1.87,0,4,1.86,5.2,1.93-2.06.89-7.46-.85-9.3-2.75-2.91-3.19,3.81-3.12,5.36.12,2.6,1.32,10.74,3.94,11.69,2.44.88,2.76-2.21,2.83-3.87.04-.83-.35-4.39-.28-4.61.12-.37.66-.42.99-.52.36,2.54.94,7.01-.62,9.16l-.16.3Z"/>
  <path class="cls-1" d="M5.06,22.61C.46,25.1-.13,17.39.02,14.57.16,11.9,1.44,3.2,4.71,2.71c4.27-.63,3.66,7.19,2.54,9.75-1.69,3.86-4.64,3.21-4.57-.98.01-.92.31-3.53,1.65-3.02-.09,1.92-1.11,3.84.36,5.51,2.43-1.44,2.91-6.92,1.75-9.17-1.84-3.56-4.11,2.78-4.47,4.29-.6,2.53-1.69,10.69.56,12.32,2.1,1.52,3.26-1.37,3.79-2.94.26-.79.87-4.32,1-4.51.22-.32.75-.22,1.09-.23-.36,2.54-1.02,6.99-3.12,8.63l-.24.24Z"/>
  <g>
    <path class="cls-1" d="M162.07,242.72c-.05-.05-.25.04-.24.12.02.26.35,0,.24-.12,1.06-.34,1.93-1.19,3.06-1.38,10.26-1.74,12.06,16.19,4.7,20.04-1.35.71-3.26.68-4.16,1.12-.36.18-1.9,2.39-2.8,2.96-3.85,2.45-9.43-.3-12.08-3.43-5.02-5.94-4.06-15.09,4.8-15.47-.05.05.04.25.12.24.26-.02,0-.35-.12-.24.3-.26-3.16-5.06-3.11-5.84.56-.42,3.28-2.17,3.8-1.81l1.58,4.53c.91-1.44.96-3.94,2.54-4.9,2.29-1.38,2.12,2.86,1.66,4.18ZM161.23,239.12v.24c.16-.08.16-.16,0-.24ZM158.96,245.36c1.38-1.12,2.4-3.15,2.41-4.93,0-.37-.05-.61-.37-.82-.36-.16-.9,1.09-1.02,1.37-.56,1.31-.94,2.96-1.01,4.38ZM155.59,240.32c-.46.06-1.69.51-1.65,1.03.03.31,2.83,5,3.11,5.29.37.37.66.36,1.06.62l-2.52-6.95ZM170.39,259.66c4-3.57,3.67-12.49-.27-15.99-4.27-3.78-9.4.82-11.31,4.82-3.37-1.03-6.22-1.41-8.61,1.65-4.93,6.31,4.23,17.62,11.53,14.64,1.92-.78,2.66-3.07,3.47-3.49.15-.08,1.96-.09,2.59-.28.68-.2,2.09-.9,2.6-1.36Z"/>
    <path class="cls-5" d="M155.6,246.56c.11-.11.38.22.12.24-.08,0-.17-.19-.12-.24Z"/>
    <path class="cls-10" d="M162.07,242.72c.11.11-.22.38-.24.12,0-.08.19-.17.24-.12Z"/>
    <path class="cls-4" d="M161.23,239.12c.16.08.16.16,0,.24v-.24Z"/>
  </g>
  <g>
    <path class="cls-1" d="M364.95,112.3l4.22,8.61,1.98,29.1c.08.69-1.49,1.06-2.1,1.22-1.25.32-6.35.79-7.17-.1-.23-.25-.35-.55-.43-.87-.61-10.04-1.6-20.11-1.66-30.15l4.17-7.45,1.01-.36ZM365.37,115.85c.05-.09-.67-1.79-1.04-1.76-.69,1.63-1.14,1.88-.32,3.71.47-.21.26-1.13.53-1.49.2-.28.81-.41.83-.45-.04.06.08.24.16.22.25-.06-.07-.35-.16-.22ZM363.06,117.96c-.46-.35-2.77,2.84-2.29,3.57,2.42.11,4.85.15,7.25-.31-.5-.72-.72-1.72-1.32-2.38-.4-.44-1.19-.46-1.28-1.3l-1.07,2.86c-1.31-.22-1.04-1.39-1.29-2.44ZM368.18,122.17l-3.66.65c-.88.16-2.84-.26-3.83-.3.08.28-.07.56.28.69.9.31,5.46-.11,6.47-.41.35-.1.72-.18.73-.63ZM368.2,123.63c-2.45.57-4.91.76-7.41.82l1.52,20.89c2.57.43,4.92.07,7.38-.79l-1.5-20.92ZM369.67,145.78c-2.44.81-4.9,1.17-7.44.58.07.27-.04.56.26.71.96.45,5.82-.14,6.82-.62.4-.19.54-.16.36-.67ZM369.72,147.47c-2.41.96-4.87.73-7.41.82l.14,2.17c2.51.22,4.83.01,7.29-.54.46-.2.06-2-.03-2.44.06.04.24-.08.22-.16-.06-.25-.35.07-.22.16Z"/>
    <path class="cls-3" d="M369.72,147.47c-.13-.09.15-.41.22-.16.02.08-.15.2-.22.16Z"/>
    <path class="cls-13" d="M365.37,115.85c.09-.13.41.15.16.22-.08.02-.2-.15-.16-.22Z"/>
    <path class="cls-1" d="M364.42,126.04c.66-.25,2.16.64,2.41,1.17.51,1.04,1,3.66,1.15,4.86.21,1.71.22,3.99.21,5.73,0,1.4,0,8.9-2.93,6.44-2.12-1.78-2.67-10.51-2.52-13.36.07-1.31.27-4.3,1.69-4.84ZM364.83,127.16c-1.25.5-1.05,6.58-.96,7.83.21,2.87.62,6.36,2.39,8.7,1-.21.84-9.22.71-10.47-.1-.93-.81-6.6-2.14-6.06Z"/>
  </g>
  <g>
    <path class="cls-1" d="M342.36,4.45c-.05-.05-.25.04-.24.12.02.26.35,0,.24-.12,1.06-.34,1.93-1.19,3.06-1.38,10.26-1.74,12.06,16.19,4.7,20.04-1.35.71-3.26.68-4.16,1.12-.36.18-1.9,2.39-2.8,2.96-3.85,2.45-9.43-.3-12.08-3.43-5.02-5.94-4.06-15.09,4.8-15.47-.05.05.04.25.12.24.26-.02,0-.35-.12-.24.3-.26-3.16-5.06-3.11-5.84.56-.42,3.28-2.17,3.8-1.81l1.58,4.53c.91-1.44.96-3.94,2.54-4.9,2.29-1.38,2.12,2.86,1.66,4.18ZM341.52.85v.24c.16-.08.16-.16,0-.24ZM339.24,7.09c1.38-1.12,2.4-3.15,2.41-4.93,0-.37-.05-.61-.37-.82-.36-.16-.9,1.09-1.02,1.37-.56,1.31-.94,2.96-1.01,4.38ZM335.88,2.05c-.46.06-1.69.51-1.65,1.03.03.31,2.83,5,3.11,5.29.37.37.66.36,1.06.62l-2.52-6.95ZM350.67,21.39c4-3.57,3.67-12.49-.27-15.99-4.27-3.78-9.4.82-11.31,4.82-3.37-1.03-6.22-1.41-8.61,1.65-4.93,6.31,4.23,17.62,11.53,14.64,1.92-.78,2.66-3.07,3.47-3.49.15-.08,1.96-.09,2.59-.28.68-.2,2.09-.9,2.6-1.36Z"/>
    <path class="cls-5" d="M335.88,8.29c.11-.11.38.22.12.24-.08,0-.17-.19-.12-.24Z"/>
    <path class="cls-10" d="M342.36,4.45c.11.11-.22.38-.24.12,0-.08.19-.17.24-.12Z"/>
    <path class="cls-4" d="M341.52.85c.16.08.16.16,0,.24v-.24Z"/>
  </g>
  <path class="cls-1" d="M328.54,55.56c-4.6,2.5-5.19-5.21-5.04-8.03.14-2.67,1.42-11.38,4.69-11.86,4.27-.63,3.66,7.19,2.54,9.75-1.69,3.86-4.64,3.21-4.57-.98.01-.92.31-3.53,1.65-3.02-.09,1.92-1.11,3.84.36,5.51,2.43-1.44,2.91-6.92,1.75-9.17-1.84-3.56-4.11,2.78-4.47,4.29-.6,2.53-1.69,10.69.56,12.32,2.1,1.52,3.26-1.37,3.79-2.94.26-.79.87-4.32,1-4.51.22-.32.75-.22,1.09-.23-.36,2.54-1.02,6.99-3.12,8.63l-.24.24Z"/>
  <path class="cls-1" d="M409.74,81.35c-3.82,3.58-6.33-3.74-6.9-6.5-.53-2.62-1.49-11.37,1.55-12.66,3.97-1.69,5.35,6.04,4.92,8.79-.66,4.16-3.68,4.28-4.67.21-.22-.89-.59-3.5.84-3.34.4,1.88-.1,4,1.74,5.24,1.98-2.01,1.07-7.43-.62-9.32-2.68-2.98-3.28,3.73-3.25,5.28.06,2.6,1.06,10.77,3.65,11.78,2.42.94,2.81-2.14,2.92-3.8.06-.83-.24-4.4-.17-4.62.13-.37.67-.4,1-.49.3,2.55.77,7.03-.84,9.14l-.17.29Z"/>
  <g>
    <path class="cls-1" d="M396.44,189.07c-.05-.05-.25.04-.24.12.02.26.35,0,.24-.12,1.06-.34,1.93-1.19,3.06-1.38,10.26-1.74,12.06,16.19,4.7,20.04-1.35.71-3.26.68-4.16,1.12-.36.18-1.9,2.39-2.8,2.96-3.85,2.45-9.43-.3-12.08-3.43-5.02-5.94-4.06-15.09,4.8-15.47-.05.05.04.25.12.24.26-.02,0-.35-.12-.24.3-.26-3.16-5.06-3.11-5.84.56-.42,3.28-2.17,3.8-1.81l1.58,4.53c.91-1.44.96-3.94,2.54-4.9,2.29-1.38,2.12,2.86,1.66,4.18ZM395.6,185.47v.24c.16-.08.16-.16,0-.24ZM393.32,191.71c1.38-1.12,2.4-3.15,2.41-4.93,0-.37-.05-.61-.37-.82-.36-.16-.9,1.09-1.02,1.37-.56,1.31-.94,2.96-1.01,4.38ZM389.96,186.67c-.46.06-1.69.51-1.65,1.03.03.31,2.83,5,3.11,5.29.37.37.66.36,1.06.62l-2.52-6.95ZM404.75,206.01c4-3.57,3.67-12.49-.27-15.99-4.27-3.78-9.4.82-11.31,4.82-3.37-1.03-6.22-1.41-8.61,1.65-4.93,6.31,4.23,17.62,11.53,14.64,1.92-.78,2.66-3.07,3.47-3.49.15-.08,1.96-.09,2.59-.28.68-.2,2.09-.9,2.6-1.36Z"/>
    <path class="cls-5" d="M389.96,192.91c.11-.11.38.22.12.24-.08,0-.17-.19-.12-.24Z"/>
    <path class="cls-10" d="M396.44,189.07c.11.11-.22.38-.24.12,0-.08.19-.17.24-.12Z"/>
    <path class="cls-4" d="M395.6,185.47c.16.08.16.16,0,.24v-.24Z"/>
  </g>
</svg>
