<?xml version="1.0" encoding="UTF-8"?>
<svg id="Layer_1" data-name="Layer 1" xmlns="http://www.w3.org/2000/svg" viewBox="0 0 93.37 150">
  <defs>
    <style>
      .cls-1 {
        fill: #0077fe;
      }

      .cls-2 {
        fill: #2288fe;
      }

      .cls-3 {
        fill: #2188fe;
      }

      .cls-4 {
        fill: #2087fe;
      }

      .cls-5 {
        fill: #4399fe;
      }
    </style>
  </defs>
  <path class="cls-1" d="M23.76,122.32c-5.57-1.18-10.63-2.85-12.45-8.78-2.1-6.83-3.38-17.85-4.56-25.23C2.71,63.12-.41,37,.04,11.47c2.72-.96,4.92-2.84,7.57-3.97C18.39,2.89,34,.71,45.71.15c4.03-.19,30.54-.38,32,.69,3.68,24.11,6.16,48.43,9.48,72.6.81,5.91,1.42,12.39,3.47,17.87-.25,2.13-2.37,2.31-3.57,3.82-4.03,5.07-6.81,9.52-1.88,15.3,4.48,5.25,16.27,6.94-.72,8.91-10.42,1.21-22.31,2.25-32.78,2.98-3.08.21-6.23-.14-9.31,0l2.24,26.81c-1.19-.2-3.49.42-4.35-.12-.51-.32-4.08-9.19-5.15-10.84-.35-.54-.6-2.19-1.66-.96-1.36,1.57-.28,14.13-6.7,12.67l-2.98-27.56c.17.17.76-.11.74-.37-.06-.81-1.1.02-.74.37ZM75.17,3.9c-20.26-.8-43.37-1.29-62.74,5.43-1.88.65-7.66,2.68-8.42,4.25-.83,1.73-.55,17.37-.4,20.52.94,19.85,4.62,49.12,9,68.46.19.85.29,1.36,1.09,1.88,5.25-7.16,14.9-9.48,23.31-10.94,16.06-2.79,33.1-2.37,49.32-3.95L75.17,3.9ZM84.11,93.28c-17.77,1.63-37.98.52-55.12,5.59-11.94,3.53-23.01,15.24-5.22,19.73l.12-9.57c3.48-1.24,6.79-3.21,10.66-3.11,9.06.24,7.99,6.23,7.85,13.43l43.21-3.73-4.77-5.28c-3.88-7.3-.75-11,3.28-17.06.17.17.76-.11.74-.37-.06-.81-1.1.02-.74.37ZM12.96,105.19v.74c.48-.25.48-.5,0-.74ZM40.14,140.19l-1.82-28.34c-1.15-4.21-10.94-2.22-11.59,1.15l2.24,27.93,2.92-9.36c.39-1.8,2.09-2.67,3.39-1.04l4.86,9.66ZM40.52,140.94v.74c.48-.25.48-.5,0-.74Z"/>
  <path class="cls-5" d="M12.96,105.19c.48.25.48.5,0,.74v-.74Z"/>
  <path class="cls-2" d="M23.76,122.32c-.35-.35.69-1.19.74-.37.02.26-.58.54-.74.37Z"/>
  <path class="cls-4" d="M40.52,140.94c.48.25.48.5,0,.74v-.74Z"/>
  <path class="cls-3" d="M84.11,93.28c-.35-.35.69-1.19.74-.37.02.26-.58.54-.74.37Z"/>
  <path class="cls-1" d="M19.21,15.17c1.42,1.16.65,15.24.8,18.19.54,10.29,1.16,21.01,2.27,31.25.81,7.51,2.34,15,3.68,22.42.34,1.91-3.56,2.45-3.69,1.34-3.81-24.23-5.74-48.73-5.95-73.29.81.14,2.43-.28,2.89.1Z"/>
  <path class="cls-1" d="M72.93,97.75v2.97c-12.55,1.09-25.37.6-37.64,3.71l-1.09-3.35c12.64-2.79,25.77-3.39,38.73-3.33Z"/>
  <polygon class="cls-1" points="74.42 104.45 74.42 107.42 48.34 108.91 48.34 105.94 74.42 104.45"/>
  <path class="cls-1" d="M69.12,111.97l.81,1.79c-.09,2.6-22.46,2.76-25.32,2.6v-2.97s24.51-1.42,24.51-1.42Z"/>
</svg>