<?xml version="1.0" encoding="UTF-8"?>
<svg id="Layer_1" data-name="Layer 1" xmlns="http://www.w3.org/2000/svg" viewBox="0 0 76.95 147.6">
  <defs>
    <style>
      .cls-1 {
        fill: #0077fe;
      }

      .cls-2 {
        fill: #4c9ffe;
      }

      .cls-3 {
        fill: #54a2fe;
      }

      .cls-4 {
        fill: #3592fe;
      }
    </style>
  </defs>
  <path class="cls-1" d="M60.27,89.03c5.79-11.06,15.86-10.22,16.63,3.19.79,13.71-7.58,37.98-13.72,50.32-3.92,7.89-7.21,5.03-13.95,1.56-14.11-7.25-29.61-19.5-37.2-33.69-4.66-8.72-4.84-16.92,7.42-13.56-2.49-3.19-5.51-6.03-8-9.22C5.85,80.47.02,72.68,0,63.17c0-5.41,1.81-9.54,7.95-7.39l7.79,4.9C7.66,47.54,1.02,28.31,5.35,12.9,8.69,1.01,17.91-5.32,27.19,5.72c9.6,11.42,13.42,28.31,16.78,42.53,1.5-4.04,4.15-15.01,8.16-16.82,4.05-1.83,7.71,8.19,8.75,11.19,5.4,15.56-.95,30.83-.61,46.42l-.29.79c-.18-.06-.51.34-.41.52.31.57.78-.38.41-.52l.29-.79ZM56.26,143.81c-6.11-12.77-11.01-26.32-12.79-40.39l2.97-.47c1.23,14.25,6.42,28.06,13.27,40.56,6.17-15.61,13.17-29.85,14.37-46.96.33-4.66.26-15.14-6.83-11.46-4.64,2.41-5.6,9.95-7.31,11.19-.55.4-2.52.27-2.92-.24-.43-.55.38-12.35.53-14.01.72-7.98,2.99-15.88,2.84-23.96-.15-8.27-1.88-17.28-6.73-24.11-1.67-.46-5.36,8.85-5.89,10.56-.58,1.87-1.68,9.95-2,10.45-.56.86-2.36.63-3.15.05-3.22-14.33-6.27-31.03-14.45-43.46-6.31-9.59-14.59-13.49-19.62-.15-5.17,13.74,1.01,31.94,7.46,44.28,1.21,2.32,6.83,9.74,6.48,11.71-.13.74-1.62,1.67-2.19,1.57-.94-.16-9.97-10.96-14.95-10.97-2.65,0-2.66,2.68-2.65,4.82.03,16.64,20.11,31.51,29.17,43.93-.64.18-1.27,1.1-1.72,1.23-2.55.7-11.66-12.76-17.65-8.57-2.45,1.71,1.71,9.14,2.96,11.41,6.71,12.14,20.47,22.91,32.5,29.47,2.63,1.44,5.29,3.05,8.31,3.51-.06.18.34.51.52.41.57-.31-.38-.78-.52-.41ZM16.27,61.09l.25.54c.27-.34.18-.52-.25-.54ZM43.95,48.91l.25.54c.27-.34.18-.52-.25-.54ZM19.98,97.27l.25.54c.27-.34.18-.52-.25-.54Z"/>
  <path class="cls-2" d="M19.98,97.27c.43.02.52.2.25.54l-.25-.54Z"/>
  <path class="cls-4" d="M43.95,48.91c.43.02.52.2.25.54l-.25-.54Z"/>
  <path class="cls-3" d="M59.98,89.82c.37.14-.1,1.09-.41.52-.1-.18.24-.58.41-.52Z"/>
</svg>