<?xml version="1.0" encoding="UTF-8"?>
<svg id="Layer_1" data-name="Layer 1" xmlns="http://www.w3.org/2000/svg" viewBox="0 0 131.76 147">
  <defs>
    <style>
      .cls-1 {
        fill: #0077fe;
      }

      .cls-2 {
        fill: #2f90fe;
      }

      .cls-3 {
        fill: #298bfe;
      }
    </style>
  </defs>
  <path class="cls-1" d="M58.18,24.61c1.45-18.53,18.5-30.02,32.6-13.35,10.74,12.69,15.6,33.96,16.09,50.24l5.08-7.07c8.41-6.11,15.31.46,17.9,8.82,7.74,25.04-9.32,62.91-29.68,78.3-7.49,5.66-26,6.57-34.92,4.34-16.63-4.15-19.73-17.28-7.06-28.65-14.43-.99-44.77-8.13-41.42-27.69,1.64-9.56,11.87-13.54,20.22-15.09C21.08,64.7,1.32,50.21.07,29.74-1.87-1.92,37.18-10.2,52.56,14.15c2.07,3.28,3,7.63,5.63,10.46ZM60.55,28.14c-.37,3.61.27,7.71,0,11.38h-3.93c.44-6.84-2.55-15.22-5.87-21.21C37.36-5.85,1.06.2,3.99,31.31c1.14,12.14,11.6,23.86,20.97,30.84,3.13,2.33,21.02,11.96,21.39,13.16,1.19,3.9-4.26,1.85-6.38,2.05-8.29.77-21.29,6.26-20.1,16.51,1.73,14.93,33.1,20.01,45,20.61,2.68,1.48,2.6,2.12.16,3.7-5.91,3.82-13.97,7.53-10.16,16.91,4.39,10.81,30.42,8.71,39.45,5.69-2.51-10.17-5.03-20.37-8.63-30.22-3.12-8.55-8.41-17.47-11.19-25.73-1.01-3,2.02-4.16,2.92-2.89,8.36,18.3,15.65,36.9,20.42,56.49,18.26-13.19,31.45-42.46,30.27-64.78-.34-6.4-2.93-20.23-12.05-17.46-7.27,2.2-9.72,24.08-10.87,24.85-.63.42-2.14-.02-3.03.11.07-9.01,1.44-18.08.81-27.11-.86-12.48-10.18-43.32-23.73-46.91-11.69-3.1-17.75,11.78-18.7,21.05ZM57.8,26.18v.78c.51-.26.51-.52,0-.78ZM106.86,64.63v-1.56h-.77v1.56h.77Z"/>
  <rect class="cls-2" x="106.09" y="63.07" width=".77" height="1.56"/>
  <path class="cls-3" d="M57.8,26.18c.51.26.51.52,0,.78v-.78Z"/>
</svg>