<?xml version="1.0" encoding="UTF-8"?>
<svg id="Layer_1" data-name="Layer 1" xmlns="http://www.w3.org/2000/svg" viewBox="0 0 92.77 149">
  <defs>
    <style>
      .cls-1 {
        fill: #0077fe;
      }

      .cls-2 {
        fill: #2087fe;
      }

      .cls-3 {
        fill: #60a9fe;
      }

      .cls-4 {
        fill: #3993fe;
      }
    </style>
  </defs>
  <path class="cls-1" d="M70.66,104.5c6.03,1.31,12.44,2.91,10.96,10.58-.29,1.5-2.01,2.79-1.84,3.9.28,1.85,3.23,3.06,2.98,8.24-.12,2.59-1.79,4.53-1.79,5.01-.02,2.9,9.77,9.46-3.36,14.05-5.35,1.87-19.24,2.37-25.58,2.57-5.68.17-30.8.98-33.06-4.29-2.38-5.57,1.4-8.78,1.19-10.15-.17-1.11-2.46-2.67-2.84-5.28-.21-1.42.02-12.75.19-14.7.79-8.73,9.13-6.85,9.6-9.3.74-3.9-18.81-25.84-22.05-33.05C-10.83,36.71,12.04-9.05,54.51,1.56c31.58,7.89,47.16,45.32,32.99,74.2-4.92,10.01-16.28,17.11-16.83,28.74ZM36.09,54.65c4.87,4.11,5.3,13.63,7.84,16.78,1.61,1.99,7.75.4,8.42-1.66.98-3.01.79-9.69,1.6-13.48,1.27-5.96,7.72-21.41,14.04-10.92,4.06,6.74-1.01,16.2-5.03,21.94-1.24,1.78-4.3,3.75-4.92,5.13-1.52,3.36-.19,29.92,2.44,31.7,5.15,3.47,7.14-8.19,9.3-11.91,3.3-5.67,8.64-10.12,12.03-16.11C100.69,42.79,75.01.05,35.99,5.17,6.59,9.03-1.49,48.21,9.78,71.4c5.87,12.06,18.75,20.07,21.7,33.08l12.98-.91-3.07-26.08c-4.44.34-7.28-.18-10.95-2.63-13.36-8.9-5.41-29.55,5.65-20.21ZM57.52,65.39l-1,2h.99s0-2,0-2c4.69-.32,9.9-18.14,5.53-18.07-2.73.04-6,15.18-5.53,18.07ZM39.42,73.42c.8-.85-4.85-17.31-9.51-16.07-4.83,7.1,1.8,15.68,9.51,16.07ZM52.49,75.44c-2.05,1.17-4.68,1.87-7.04,2.02,2.49,8.36,3,17.39,3.02,26.13h6.04c-.23.22.15,1.02.5,1,1.1-.07-.03-1.48-.5-1.01l-2.01-27.14,1.01-1.5-.51-.51c-.7.38-.45.97-.5,1ZM76.39,110.84c-4.83-3.71-47-3-52.47.86-2.4,1.69-1.52,4.31-1.59,6.96,13.26-.7,26.4-.95,39.76-1.05,4.18-.03,9.3,1.84,13.51-1.49,1.46-1.16,2.38-4.05.8-5.27ZM76.49,121.79c-.96-.69-5.47.85-7.37.93-8.72.35-40.43-1.67-45.77,1.48-2.79,1.65-1.18,5.74.66,7.56,10.64-.45,21.4.45,32.04,0,2.14-.09,4.01-.89,6-1.04,3.72-.27,15.54,1.32,16.44-3.66.1-.54-1.77-5.11-2-5.27ZM79.63,140.75c.99-1.41-1.6-4.86-3.04-5.5-3.03-1.36-4.84.44-7.52.49-7.78.17-15.41.74-23.07,1.05-4.46.18-19.87-1.07-22.17.95-.55.48-1.62,2.77-1.46,3.46.46,1.06,1.47,1.26,2.39,1.67,5.2,2.3,41.95,1.07,49.11-.32.85-.17,5.58-1.55,5.76-1.8Z"/>
  <path class="cls-3" d="M52.49,76.44v-1.01s-.2-.62.5-1l.51.51-1.01,1.5Z"/>
  <polygon class="cls-2" points="57.52 65.39 57.51 67.39 56.52 67.39 57.52 65.39"/>
  <path class="cls-4" d="M54.5,103.58c.47-.47,1.6.93.5,1.01-.35.02-.73-.78-.5-1.01Z"/>
</svg>