<?xml version="1.0" encoding="UTF-8"?>
<svg id="Layer_1" data-name="Layer 1" xmlns="http://www.w3.org/2000/svg" viewBox="0 0 62.21 151">
  <defs>
    <style>
      .cls-1 {
        fill: #0077fe;
      }
    </style>
  </defs>
  <path class="cls-1" d="M37.38,147.37C3.39,165.84-.97,108.84.15,87.98,1.21,68.24,10.66,3.85,34.85.27c31.55-4.67,27.04,53.2,18.81,72.06-12.46,28.57-34.31,23.75-33.83-7.22.11-6.78,2.32-26.13,12.22-22.35-.66,14.2-8.18,28.41,2.65,40.73,17.93-10.68,21.53-51.18,12.92-67.82-13.6-26.3-30.42,20.58-33.07,31.75-4.44,18.73-12.51,79.04,4.17,91.12,15.53,11.24,24.1-10.11,27.99-21.73,1.96-5.84,6.46-31.95,7.42-33.37,1.62-2.39,5.53-1.65,8.07-1.67-2.63,18.79-7.56,51.72-23.05,63.83l-1.77,1.77Z"/>
</svg>