<?xml version="1.0" encoding="UTF-8"?>
<svg id="Layer_1" data-name="Layer 1" xmlns="http://www.w3.org/2000/svg" viewBox="0 0 49.15 151">
  <defs>
    <style>
      .cls-1 {
        fill: #0077fe;
      }

      .cls-2 {
        fill: #2288fe;
      }

      .cls-3 {
        fill: #5da7fe;
      }
    </style>
  </defs>
  <path class="cls-1" d="M38.86,0l10.28,35.61-12.02,112.1c-.16,2.7-6.37,3.03-8.82,3.23-4.96.39-24.71-1.25-27.24-5.18-.7-1.09-.97-2.34-1.06-3.62C4.41,103.51,7.4,64.52,13.91,26.26L34.79.71l4.08-.71ZM38.05,13.79c.25-.32-1.36-7.25-2.77-7.41-3.73,5.74-5.6,6.39-3.71,13.89,1.93-.47,1.76-4.11,3-5.32.96-.94,3.37-1.02,3.48-1.16-.21.21.14.95.46.93,1.01-.07-.03-1.36-.46-.93ZM27.85,20.28c-1.52-1.66-12.47,8.95-11.12,12.04,9.13,2.03,18.38,3.82,27.81,3.71-1.41-3.09-1.57-7.03-3.41-9.93-1.23-1.94-4.21-2.53-4.01-5.81l-6,10.15c-4.85-1.7-3.01-5.99-3.26-10.15ZM44.54,39.74h-14.37c-3.45,0-10.62-2.9-14.36-3.71.13,1.11-.64,2.09.61,2.8,3.2,1.8,20.85,3.26,24.91,2.8,1.39-.16,2.87-.19,3.21-1.89ZM43.62,45.3c-9.71.52-19.19-.39-28.74-1.86L6.63,123.98c9.51,3.38,18.7,3.56,28.64,1.94l8.35-80.63ZM34.34,130.57c-9.83,1.43-19.44,1.15-28.73-2.79.1,1.06-.53,2.12.53,2.87,3.36,2.36,22.23,3.39,26.39,2.23,1.65-.46,2.16-.26,1.81-2.31ZM33.42,137.05c-9.81,2.05-19.04-.49-28.74-1.86l-.94,8.34c9.39,2.53,18.37,3.29,28.13,2.83,1.9-.44,1.59-7.58,1.54-9.31.21.21.95-.14.93-.46-.07-1.01-1.36.03-.93.46Z"/>
  <path class="cls-2" d="M33.42,137.05c-.44-.44.86-1.48.93-.46.02.32-.72.67-.93.46Z"/>
  <path class="cls-3" d="M38.05,13.79c.44-.44,1.48.86.46.93-.32.02-.67-.72-.46-.93Z"/>
  <path class="cls-1" d="M27.61,51.92c2.68-.52,7.77,3.89,8.4,6.07,1.23,4.29,1.35,14.59,1.11,19.27-.35,6.63-1.85,15.31-3.07,21.96-.97,5.31-5.99,33.88-15.48,22.55-6.88-8.21-3.09-41.79-.62-52.55,1.13-4.93,3.91-16.18,9.66-17.3ZM28.42,56.47c-5.08,1.08-8.41,24.35-8.9,29.15-1.13,11.08-1.9,24.62,3.24,34.73,3.94-.13,9.4-34.53,9.73-39.38.24-3.61,1.36-25.66-4.07-24.51Z"/>
</svg>