<?xml version="1.0" encoding="UTF-8"?>
<svg id="Layer_1" data-name="Layer 1" xmlns="http://www.w3.org/2000/svg" viewBox="0 0 413.6 110.54">
  <defs>
    <style>
      .cls-1 {
        fill: #0077fe;
      }

      .cls-2 {
        fill: #0076fe;
      }

      .cls-3 {
        fill: #0177fe;
      }
    </style>
  </defs>
  <path class="cls-1" d="M327.6,21.65l-.25,4.16c7.58-4.11,16.17-1.5,19.64,6.71,6.13,14.49-4.19,38.12-21.69,34.76v13.07c.44,2.78.37,5.62.58,8.42.52,6.69,1.81,13.36,1.77,20.09-2.77,1.42-5.92,1.02-8.89,1.68l-.42-.49c-.54-4.08-1.08-8.17-1.51-12.27-2.56-24.51-1.65-50.91.87-75.43.04-.34.13-1.28.49-1.36,3.16-.07,6.32.12,9.41.66ZM325.61,57.06c10.09,2.96,15.66-12.91,12.19-20.49-2.64-5.75-9.2.33-11.4,3.45-.55,5.66-.92,11.35-.79,17.04Z"/>
  <path class="cls-2" d="M144.9,29.42c.64-.57,1.23-1.25,1.95-1.75,6.57-4.55,13.3-2.05,15.8,5.59,2.77,8.48-.54,25.82-3.09,34.52-.23.79-1.04,3.62-1.71,3.72-1.4.21-3.69-.81-4.98-1.14-.6-.15-3.7-.41-3.85-1.14,1.08-4.51,2.23-9.03,3.1-13.6,1.22-6.4,2.64-13.17.96-19.59-1.65.76-2.67,2.47-3.56,4-2.76,4.77-4.64,11.67-5.21,17.18-.39,3.74.05,7.61-.73,11.27-.48.68-1.45,0-2.07-.01-2.43-.04-4.83-.16-7.29-.29l-.69-.49c-.35-2.58.19-5.28.26-7.76.47-16.4,1.12-32.91,2.33-49.29.19-2.52.24-5.38,1.07-7.68l8.61.47.81.65-1.72,25.34Z"/>
  <path class="cls-1" d="M174.72,53.77c-.07,5.33,2.66,11.83,8.85,10.75,4.32-.76,4.65-4.95,7.12-7.69,3.01.64,5.48,2.54,8.29,3.71l.29.29c-3.06,9.46-11.45,16.25-21.47,13.36-18.31-5.3-14.84-34.46-4.12-45.68,11.7-12.25,27.21,2.85,20.68,17.05-3.25,7.07-12.54,10.25-19.64,8.21ZM176.48,43.85c3.69,1.01,9.64-.43,9.54-5.21-.03-1.54-1.46-4.65-3.19-4.36-2.45.41-6.19,7-6.35,9.57Z"/>
  <path class="cls-3" d="M268.86,32.43c-2.4.92-4.03,3.68-4.71,6.12-2.52,8.99,3.67,8.79,7.12,14.71,4.51,7.76.26,17.9-7.58,21.17-15.32,6.39-26.39-6.92-22.92-21.99l9.1.25c.68,2.92-.13,5.84.78,8.83,2.31,7.57,13.66,3.95,12.3-2.13-.45-2.01-4.37-4.58-5.78-6.38-6.52-8.33-3.22-22.96,5.16-28.64,12.87-8.73,22.14,10.17,16.01,20.65-3.04-.64-6.04-1.32-8.93-2.5-.4-.45.73-3.43.84-4.3.27-2.32-.41-3.78-1.39-5.78Z"/>
  <path class="cls-1" d="M401.03.57l-.59,11.42c.46.47,9.75-.61,11.48-.24,1.56.34.67.99.81,1.57s.5.84.59,1.51c.27,2.03,0,4.68.28,6.78l-14.04.6-1.18,18.77c.34,4.85-1.08,21,2.49,24.21,1.3,1.18,5.63.8,6.17,1.78-.67,1.39.19,1.85.14,3.15-.03.77-.46,1.5-.53,2.21-.06.61-.13,4.09-.36,4.27-3.28-.52-6.55-.45-9.61-1.99-10-5.06-8.24-24.75-7.94-34.22.19-5.97.38-11.93.88-17.88l-9.46.26-.44-.45-.6-9.4,11.38-.63c.12-1.65.4-11.65,1.15-12.19,3.16-.37,6.22.36,9.38.47Z"/>
  <path class="cls-1" d="M58.54,43.66c6.46,6.43,4.8,15.34-3.21,19.18-3.97,1.9-8.42,3.34-12.77,3.7,2.48,4.76,7.45,9.64,12.72,5.56,1.64-1.27,3.55-6.04,4.45-6.27,1.4-.36,6.52,3.53,8.25,3.89-2.6,9.17-10.81,15.98-20.45,13.65-12.22-2.95-18.8-19.06-15.64-30.8,3.35-12.42,16.9-18.61,26.65-8.91ZM52.13,53.09c.91-.96-1.08-2.67-1.87-3.18-4.11-2.62-8.64,2.03-8.87,6.26.81.83,9.82-2.12,10.74-3.08Z"/>
  <path class="cls-1" d="M19.18,38.14c3.4-.65,6.88-.69,10.34-.56l.4.4c-.59.96.27,1.45.36,2.13.31,2.29-.06,4.74.3,7.03l-12.26,1.22c-.54,6.31-1.12,13.02.07,19.29.64,3.38,2.05,8.22,6.16,8.23,1.05,0,3.84-1.05,4.44.1.12.23-.18.7-.08.99.17.48.58.79.73,1.36.54,2.05.44,4.25,1.18,6.24-3.1,1.79-8.04,1.95-11.42.67-3.91-1.49-7.95-5.99-9.29-9.99-2.64-7.88-2.7-17.27-1.74-25.4-2.68-.23-5.26.5-7.89,0l-.46-9.63c.35-.49,5.69-.52,6.71-.62.61-.06,2.32-.22,2.48-.76l2.71-25.01c3.1-.4,6.05.48,9.13.6l.44.45-2.3,23.25Z"/>
  <path class="cls-1" d="M96.26,24.42c.12.07.97,1,.97,1.21-.61,4.15-1.67,8.5-2.03,12.66-.16,1.88-.24,4.37-.31,6.29-.24,6.85.49,13.82-.92,20.53-.53.76-7.99,0-9.3.07v-3.91c-8.08,5.61-16.36.55-19.01-8.26-2.62-8.7-.2-21.87,7.99-26.66,4.51-2.64,8.72-1.36,12.48,1.86.39-1.08.22-2.21.43-3.32.09-.47.19-1.33.63-1.47l8.64.74c.2-.01.31.17.43.25ZM76.57,52.77c1.96,1.88,4.23-1.96,5.03-3.51.38-.73,1.49-3.17,1.55-3.84.04-.46-1.36-5.26-1.65-5.99-.62-1.53-1.6-2.96-2.87-3.98-4.64,2.36-5.41,14.1-2.06,17.31Z"/>
  <path class="cls-1" d="M129.66,48.03l-9.14,1.81-.42-.49c-.44-2.08-.5-4.59-1.68-6.38-.46-.69-2.77-3.11-3.48-3.04-1.16.11-2.81,4.06-3.17,5.19-1.87,5.87-2.2,16.09,1.3,21.37,3.14,4.75,6.99,1.64,7.52-2.99.3-2.59-.79-4.59-.42-7.05,2.69-1.37,5.77-1.52,8.5-2.65,4.76,8.66.3,23.97-10.27,25.18-20.91,2.4-22.46-36.88-10.03-46.97,10.09-8.19,21.83,5.57,21.29,16.02Z"/>
  <path class="cls-3" d="M362.43,51.67c1.58,4.79,4.82,7.73,9.07,3.46,1.9-1.9,2.03-4.43,3.93-6.07,3.03.79,5.78,2.05,8.61,3.35-2.95,11.79-16.59,20.95-26.45,10.69-7.97-8.3-8.32-31.32,2.4-37.83,9.55-5.79,21.79,3.51,17.78,14.67-2.07,5.78-9.27,11.56-15.35,11.73ZM361.56,41.75c2.34-.62,4.51-1.92,6-3.9.76-1,1.6-2.39.42-3.45-3.3-2.98-6.52,4.74-6.42,7.35Z"/>
  <path class="cls-1" d="M210.97,17.11l.3,5.4c2.39-1.77,5.02-4.11,8.07-4.48,9.16-1.1,14.24,7.87,12.07,16.31-.11.44-.39,1.42-.69,1.69-1.2,1.08-7.38-.49-9.21-.3.2-2.35.68-4.87-.03-7.17-1.84-1.19-6.05,4.83-6.84,6.27-4.03,7.31-2.39,11.46-2.18,19.38.06,2.31-.03,4.63-.02,6.94,0,1.67.57,3.35-.18,5.18l-.31.37c-2.86,1.02-5.91.33-8.85.9l-1.76-49.89,4.86-.57,4.79-.03Z"/>
  <path class="cls-3" d="M249.54,32.11c-1.29-.42-2.67-.12-3.9-.3-.49-.07-.86-.45-1.26-.51-.78-.13-3.62-.18-3.85-.87-.25-.76.84-5.06.78-6.49-.16-3.48-2.48-5.95-3.41-9.05l7.72-5.02c.59,0,2.53,3.23,2.89,3.95,2.89,5.71,3.82,12.34,1.03,18.28Z"/>
</svg>