<?xml version="1.0" encoding="UTF-8"?>
<svg id="Layer_1" data-name="Layer 1" xmlns="http://www.w3.org/2000/svg" viewBox="0 0 128.52 96.41">
  <defs>
    <style>
      .cls-1 {
        fill: #0077fe;
      }
    </style>
  </defs>
  <g>
    <path class="cls-1" d="M106.88,85.76c-3.34,6.5-8.83,8.64-13.13,1.54-.37-.4-.61-.15-.83.28-2,4.81-7.01,6.45-11.56,3.69-.77-.31-1.79-2.1-2.36-.67-1.72,4.25-8.11,6.84-11.39,2.77-.75-.87-1.36-1.93-1.81-2.97-.28-.56-.42-1.37-.74-1.42-1.04.39-1.82,1.93-2.65,2.71-1.45,1.82-3.92,3.48-6.61,3.29-3.34-.17-5.47-3.33-6.38-6.35-.15-.54-.36-1.04-.66-.98-.39.07-.76.74-1.11,1.3-1.56,2.67-4.04,5.15-7.23,5.55-3,.37-6.16-1.09-7.91-3.5-1.09-1.4-1.89-3.02-2.68-4.61-.18-.37-.36-.7-.62-.77-1.95.67-3.97,2.68-6.26,3.31-4.25,1.8-9.32-.2-11.56-4.18-6.25-10.72-3.83-24.53-.43-35.97,0-.27-.23-.39-.59-.42-1.13-.05-2.31-.36-3.19-1.11-2.01-1.75-1.98-4.98-.77-7.21.27-.83,1.23-1.91,1.34-2.67-.02-.14-.14-.22-.36-.26-4.42.06-8.49-4.43-5.25-8.63,2.32-3.1,6.87-2.44,10.31-1.69,1.16.23,1.5-1.21,2.03-2.03,5.23-8.78,14.19,1.18,12.57,8.43,4.97-1.68,10.45-2.3,15.78-1.72.64.09,1.05-.18,1.13-.91C49.68,1.64,90.22-7.86,111.75,9.88c9.17,7.25,13.35,20.5,7.48,31.16-.21.38-.35.83-.18,1.22,3.86,5.01,6.33,11.04,7.59,17.22,2.21,9.88.49,21.15-7.34,28.16-2.77,2.52-6.83,4-9.85.77-.63-.63-1.27-1.83-1.94-2.51-.21-.21-.38-.3-.53-.21l-.09.07ZM103.48,40.27c.34-.24.94-.27,1.07.15.1.26.04.66.06,1.05.1,1.67,1.39,2.98,2.85,3.67,4.38,2.18,9.03-1.06,11.02-5,4.45-8.88,2.11-19.86-4.41-26.67C104.76,3.49,88.45.32,74.99,3.01c-14.13,2.85-29.16,14.71-30.43,30.16-.27,3.29.37,7.47,2.27,10.46,2.39,4.38,9.81,5.21,11.85-.42.33-.66,1.27-.82,1.59-.07,1.71,4.67,8.66,5.8,11.65,1.8.94-.95,1.55-2.25,2.27-3.32.32-.43.88-.74,1.25-.5.45.29.6,1.11,1.01,1.7,1.24,2.02,3.33,4.11,5.87,4.05,2.91-.2,5.19-3.2,5.87-5.85.36-.94.22-2.54,1.2-2.96.27-.07.54.09.72.42.52,1.19,1.19,2.39,2.04,3.26,3.23,3.63,8.39,2.56,11.24-1.37l.12-.08ZM11.59,47.22c2.05-4.28,5.02-8.39,9.18-10.79,1.31-.74,3.26-1.55,4.12-2.2,1.81-1.5,1.27-4.43.54-6.48-1.19-3.35-5.22-7.17-8.6-4.3-1.57,1.29-1.9,4.17-3.25,4.56-1.72.34-4.01-.91-5.78-.77-8.54.42-6.71,9.68.39,8.63,3.38.07-1.33,4.47-1.33,6.04-1.04,3.38,1.34,5.83,4.59,5.39l.13-.08ZM43.34,32.63c-20.91-2.59-33.93,11.17-34.51,31.7-.28,6.77.05,17.67,6.05,22.8,3.09,2.69,8.7,1.1,12.33-1.81.77-.47,2.02-1.24,2.8-.84,1.14,1.08,1.58,3.46,2.57,4.75,3.12,4.78,8.37,5.83,12.38,1.55,1.37-1.14,2.19-4.25,3.97-4.62,1.45.42,1.72,3.24,2.41,4.34,2.08,4.25,6.67,4.39,9.87,1.01.86-.84,1.53-2.08,2.37-2.99,1.01-1.2,1.97-1.17,2.69.27.68,1.25.94,2.41,1.78,3.43,2.72,3.5,7.27,2.38,9.51-1.16.53-.78.82-1.86,1.19-2.74.18-.59.61-.9.98-.54.45.5.5,1.19,1.12,1.69,1.05.99,2.66,1.8,3.96,1.98,3.55.61,6.3-1.98,7.45-5.13,1.54-3.16,3.06,2.4,4.53,3.15,4,3.28,7.17-.93,9.13-4.19,2.2-2.94,3.72,3.37,6.42,3.76,5.99,1.04,10.36-6.83,12.12-11.07,2.62-6.8,2.38-13.48.54-20.49-1.33-5.02-3.23-10.26-6.8-14.15-.26-.21-.52-.18-.78.06-.48.51-1.03,1.12-1.62,1.56-3.74,2.96-9.83,2.83-11.94-2.2-.12-.24-.26-.41-.42-.45-.16-.04-.35.05-.56.22-3.52,3.24-7.85,3.46-11.38.17-.86-.48-1.95-3.45-2.37-1.17-1.57,6.46-8.97,8.88-13.02,2.84-.41-.59-.69-1.46-1.06-1.61-.15-.06-.3.05-.48.28-.44.63-1.01,1.67-1.54,2.33-3.5,4.39-9.73,4.14-13-.3-.46-.85-.85-.37-1.3.44-.84,1.49-2.59,2.21-4.2,2.57-8.36,1.65-11.82-8.43-11.13-15.35l-.08-.09Z"/>
    <path class="cls-1" d="M71.79,96.41c-3.23.16-5.54-2.61-6.82-5.35-.12-.17-.24-.24-.38-.21-.73.43-1.49,1.74-2.23,2.37-1.83,1.98-4.87,3.21-7.52,2.66-2.84-.57-4.75-2.91-5.85-5.5-.17-.41-.34-.68-.52-.63-2.71,3.9-6.48,6.74-11,5.59-4.2-.86-6.46-4.22-8.13-7.68-.26-.55-.59-.73-1.06-.44-3.54,2.34-7.83,4.63-12.67,2.61-12.72-6.66-9.24-30.02-6.06-39.68.11-.36.1-.65-.26-.82-4.94-.94-5.86-6.62-3.43-10.43.09-.2.25-.5.14-.7-.52-.51-1.5-.47-2.15-.88-3.79-1.67-5.27-6.28-2.28-9.73,2.67-3.17,7.42-2.53,10.52-1.88.68.13.95-.36,1.26-.95,1.76-4.21,6.98-5.87,10.47-2.71,2.47,1.99,4.35,5.67,4.39,9.03.02.3.11.5.32.54,4.64-1.19,9.67-1.58,13.57-1.19,1.19.17.98-1.28,1.27-2.09,1.99-8.04,7.2-14.69,13.91-19.71C78.32-7.68,120.1-.85,122.9,28.93c.24,4.24-.69,8.51-2.67,12.4-.19.47-.06.87.23,1.23,3.42,4.49,5.9,10.44,7.31,17.52,1.47,7.16.79,14.69-2.23,20.9-3.22,6.84-12.04,15.29-18.21,6.52-.78.24-1.12,1.5-1.75,2.04-1.18,1.44-2.89,2.72-4.59,3.08-2.5.65-5.23-.96-6.82-2.98-.26-.33-.45-.58-.65-.55-.88.72-1.5,2.17-2.77,2.94-3.11,2.4-7.33,1.81-10.78-.34-.82.19-1.14,1.45-1.83,1.97-1.6,1.68-3.87,2.71-6.18,2.74h-.16ZM65.06,86.59c2.19.2,2.49,3.28,3.71,4.9,2.43,3.62,7.58,1.36,8.65-2.43.32-.84.46-1.36.89-1.99.46-.71,1.66-.6,2.21-.04.67.97.79,1.85,2.05,2.48,2.13,1.45,5.16,1.34,6.94-.54,1.63-1.21,1.56-4.5,3.91-4.74,1.37.16,1.97,1.83,2.71,2.83,1.61,2.89,4.67,3.66,7.03.51,2.13-2.94,3.57-6.53,6.82-1.93,4.16,6.74,10.58-1.6,12.6-5.84,5.3-9.98,2.68-25.03-4.17-34.74-.25-.31-.56-.51-.95-.19-2.09,2.02-5.06,3.29-8,3.01-2.43-.19-4.61-1.5-5.88-3.53-.31-.43-.64-.49-1.08-.19-3.87,2.93-8.71,2.38-12.06-1.12-.37-.34-.61-.28-.84.24-2.23,5.69-9.04,7.54-13.18,3.01-.36-.37-.71-.77-.98-1.16-.23-.34-.41-.55-.62-.43-1.69,2.31-4.25,4.81-7.99,4.88-2.33-.02-4.69-1.05-6.59-2.75-.24-.23-.45-.39-.64-.39-.23,0-.43.25-.68.53-1.62,1.55-4.02,2.28-6.23,2.27-7.31-.08-10.67-8.93-10.29-15.06,0-.41-.19-.67-.61-.75-18.14-1.28-30.84,9.18-31.91,30.38-.46,5.87.13,13.6,2.82,19,2.21,4.74,6.72,5.97,11.42,3.3,2.29-1.23,6.01-4.96,7.55-1.01,2.09,5.97,7.66,10.46,12.83,4.7,1.33-1.37,2.26-4.67,4.54-4.68,2.5.51,2.33,4.13,3.74,5.8,2.03,2.93,5.32,2.32,7.69-.09,1.32-1.26,2.42-4.02,4.45-4.25h.14ZM60.19,41.7c1.2.34,1.1,2.18,2.1,2.82,2.14,2.13,5.89,2.63,8.08.52,1.43-1.14,2.13-2.83,3.17-4.24.62-.85,2.79-1.43,3.07.02,3.47,8.1,9.93,5.56,11.11-2.23.26-1.26,1.8-2.22,2.89-1.28.63.6.89,1.61,1.33,2.4,1.63,3.14,5.33,4.3,8.39,2.18,1.57-.83,2.45-3.62,4.57-2.66.6.32.8,1.07.72,1.67-.22,2.15,2.1,3.62,4.07,3.86,3.3.46,6.1-2.01,7.69-4.71,2.71-4.71,3.02-11.56,1.35-16.78-4.5-13.86-19.89-19.87-33.57-20.13-18.63-1.3-43.88,15.31-38.86,36.9.82,2.74,2.63,5.66,5.7,6.07,2.66.24,5.38-.46,6.73-3.08.32-.49.76-1.34,1.37-1.35l.11.02ZM8.37,34.86c1.18-.05,2.33.86,2.06,2.12-.39,2.01-2.29,3.47-2.66,5.46-.47,2.01.27,3.48,2.3,3.88.46.1.9-.02,1.13-.44,2.19-4.63,5.72-8.71,10.34-10.98,1.05-.61,2.48-.98,3.17-1.95.81-1.59.26-3.69-.38-5.27-1.04-2.41-3.92-5.7-6.74-3.6-1.38,1-1.68,3.68-3.16,4.6-1.83,1.07-4.21-.43-6.21-.46-6.43-.49-7.18,7.37-.02,6.63h.15ZM59.92,41.88h0s0,0,0,0Z"/>
  </g>
  <g>
    <path class="cls-1" d="M91,31.45c-.92-.22-.96-5.66-2.04-5.15-1.19,1.51-1.32,4.34-2.68,5.71-1.06.39-.49-1.36-.03-2.45.82-2.19,2.04-3.72.13-5.47-.59-.74-1.35-1.75-.96-2.66.75-1.51,4.63-2.56,5.92-1.29.64.96-.57,2.69-.83,3.69-.55,2.27,1.38,4.72,1.04,6.97-.07.45-.26.71-.48.67l-.07-.02Z"/>
    <path class="cls-1" d="M86,33.18c-3.34-.99.5-5.06.24-7.07-.3-1.6-2.33-2.8-1.83-4.63.72-2.41,5.53-3.72,7.64-2.04,1.52,1.66-.79,3.84-.52,5.73.21,2.36,2.68,7.04-.69,7.36-1.33,0-1.34-1.75-1.75-2.7-.15-.26-.15-.18-.25-.18-.56.28-1.17,3.61-2.72,3.55h-.13ZM89.88,20.76c-.96,0-2.4.38-3.17.86-.3.2-.55.31-.39.67.39.76,1.38,1.84,2.07,2.45.69.41.62-.49.85-.91.1-.6,2.15-3.19.79-3.06h-.15Z"/>
  </g>
  <g>
    <path class="cls-1" d="M77.67,17.71c-.3,10.17-9.27,13.29-14.27,3.84-.32-1.05.94-.87,1.31-.14,4.01,7.81,11.23,5.28,11.8-2.97.01-.1.03-.3.04-.4.05-.48.75-.58,1.03-.4l.08.08Z"/>
    <path class="cls-1" d="M70.62,28.26c-3.79.04-7-4.06-8.24-6.5-.18-.34-.45-.71-.27-1.08.32-.54,1.27-.98,1.95-.88,1.24.14,1.84,1.62,2.39,2.5.5.75,1.3,1.58,2.17,2.16,3.92,2.56,6.86-2.54,6.86-6.17.12-.54-.23-1.39.29-1.7.44-.09,1.68-.02,2.27-.04.57-.01.77.08.75.57-.08,4.42-2.39,11.11-8.01,11.14h-.16Z"/>
  </g>
  <g>
    <path class="cls-1" d="M108.75,16.81c-.24,3.39-3.75,8.07-7.69,6.53-2.58-1.16-5.11-3.81-5.63-6.63.12-1.55,1.2-.06,1.48.92,1.46,3.49,6.28,7,9.03,2.99.76-1,1.25-2.29,1.79-3.39.29-.54.78-.82.97-.52l.05.1Z"/>
    <path class="cls-1" d="M102.58,24.61c-3.79-.23-7.67-4.29-8.15-7.9-.15-1.42,1.68-2.29,2.57-1.1.55.63.77,1.57,1.23,2.36,1.32,2.26,4.74,4.99,6.81,2.1,1-1.13,1.58-3.38,2.46-4.4.58-.5,2.58-.01,2.44,1.04-.47,3.12-3.2,7.87-7.19,7.91h-.17Z"/>
  </g>
  <g>
    <path class="cls-1" d="M115.81,29.15c.56,1.01-1.13,1.31-1.46.37-.13-.61.78-.93,1.35-.49l.11.12Z"/>
    <path class="cls-1" d="M115.43,31.16c-2.33-.15-2.87-3.34-.09-3.29,1.89.3,2.46,2.96.26,3.28h-.17Z"/>
  </g>
  <g>
    <path class="cls-1" d="M110.98,29.79c.29.6-.68,1.26-1.14.71-.83-.79.46-1.32,1.05-.81l.09.1Z"/>
    <path class="cls-1" d="M110.24,31.67c-1.23.17-2.42-1.72-1.58-2.71.78-.96,3.39-.45,3.42.68.02.93-.82,1.79-1.68,2l-.16.03Z"/>
  </g>
  <g>
    <path class="cls-1" d="M110.75,24.06c.42-.12,1.23.43,1.34.79.15.51-.67.9-1.03.54-.27-.25-.57-.91-.4-1.26l.09-.08Z"/>
    <path class="cls-1" d="M111.49,26.64c-1.72.11-2.89-3.17-.83-3.55,1.09-.18,3.07,1.09,2.72,2.12-.23.72-.96,1.28-1.7,1.41l-.19.02Z"/>
  </g>
  <g>
    <polygon class="cls-1" points="63.13 31.1 63.97 31.94 63.34 32.51 62.55 31.91 63.13 31.1"/>
    <path class="cls-1" d="M63.35,33.87c-1.24-.03-2.62-1.32-2.09-2.58.3-.73.89-1.58,1.72-1.68.97-.06,2.44,1.4,2.41,2.41-.08.94-.93,1.71-1.84,1.83h-.2Z"/>
  </g>
  <g>
    <path class="cls-1" d="M58.62,31.7c.51-.23,1.12.71.76,1.16-.58.83-1.28-.57-.86-1.07l.11-.09Z"/>
    <path class="cls-1" d="M58.85,34.13c-1.21-.17-1.94-1.93-1.25-2.93.54-.85,2.01-.59,2.59.44.58.95,0,2.49-1.18,2.5h-.16ZM58.53,32.3c-.07.09.05.43.14.38.08-.02-.09-.35-.09-.41l-.05.03Z"/>
  </g>
  <g>
    <path class="cls-1" d="M61.52,27.99c-.3.14-.63-.09-.79-.35,0-.16-.01-.48-.02-.64.55-.97,1.5.43.93.92l-.12.07Z"/>
    <path class="cls-1" d="M61.48,29.07c-1.18.37-2.29-.66-1.93-1.92.23-.98,1.51-1.72,2.36-1.19,1.23.66,1.07,2.59-.26,3.05l-.17.06Z"/>
  </g>
</svg>
